G04*
G04 #@! TF.GenerationSoftware,Altium Limited,Altium Designer,22.9.1 (49)*
G04*
G04 Layer_Color=255*
%FSLAX44Y44*%
%MOMM*%
G71*
G04*
G04 #@! TF.SameCoordinates,C8543A43-BB23-4CB5-9DBE-1C6E9BA76EC2*
G04*
G04*
G04 #@! TF.FilePolarity,Positive*
G04*
G01*
G75*
%ADD17R,3.4500X1.5500*%
%ADD18R,0.6000X0.7000*%
%ADD19R,2.1590X2.7430*%
%ADD20R,1.4500X0.7000*%
%ADD21R,1.0000X0.9000*%
%ADD22R,1.0000X0.8000*%
%ADD23R,0.9000X1.0000*%
%ADD24R,3.3000X8.2000*%
%ADD25R,0.8000X1.0000*%
%ADD26R,1.2000X1.0000*%
%ADD27R,0.8000X0.8000*%
%ADD28R,0.8500X0.8500*%
%ADD29R,0.9000X1.0500*%
%ADD30R,0.6000X0.5500*%
%ADD54R,0.8500X0.8500*%
%ADD57C,1.0000*%
G04:AMPARAMS|DCode=58|XSize=1.7mm|YSize=2mm|CornerRadius=0.425mm|HoleSize=0mm|Usage=FLASHONLY|Rotation=0.000|XOffset=0mm|YOffset=0mm|HoleType=Round|Shape=RoundedRectangle|*
%AMROUNDEDRECTD58*
21,1,1.7000,1.1500,0,0,0.0*
21,1,0.8500,2.0000,0,0,0.0*
1,1,0.8500,0.4250,-0.5750*
1,1,0.8500,-0.4250,-0.5750*
1,1,0.8500,-0.4250,0.5750*
1,1,0.8500,0.4250,0.5750*
%
%ADD58ROUNDEDRECTD58*%
%ADD59O,1.7000X2.0000*%
%ADD60C,1.4000*%
%ADD61R,1.4000X1.4000*%
%ADD62C,0.8500*%
D17*
X358000Y101250D02*
D03*
X299000D02*
D03*
X90000Y331000D02*
D03*
X31000D02*
D03*
Y54750D02*
D03*
X90000D02*
D03*
X96750Y186750D02*
D03*
X155750D02*
D03*
D18*
X248750Y281500D02*
D03*
X258250Y261500D02*
D03*
X239250D02*
D03*
D19*
X347700Y288500D02*
D03*
X303500D02*
D03*
D20*
X178250Y357300D02*
D03*
Y344600D02*
D03*
Y331900D02*
D03*
Y319200D02*
D03*
X122250D02*
D03*
Y331900D02*
D03*
Y344600D02*
D03*
Y357300D02*
D03*
X199000Y319200D02*
D03*
Y331900D02*
D03*
Y344600D02*
D03*
Y357300D02*
D03*
X255000D02*
D03*
Y344600D02*
D03*
Y331900D02*
D03*
Y319200D02*
D03*
D21*
X246750Y131500D02*
D03*
Y118000D02*
D03*
D22*
X370500Y265750D02*
D03*
Y280750D02*
D03*
X279500Y290750D02*
D03*
Y275750D02*
D03*
D23*
X240750Y242250D02*
D03*
X254250D02*
D03*
D24*
X257500Y52000D02*
D03*
X210500D02*
D03*
D25*
X300750Y255500D02*
D03*
X315750D02*
D03*
D26*
X340500Y233250D02*
D03*
Y208250D02*
D03*
Y183250D02*
D03*
D27*
X151500Y24000D02*
D03*
Y9000D02*
D03*
D28*
X151750Y61250D02*
D03*
Y45750D02*
D03*
X363750Y339750D02*
D03*
Y324250D02*
D03*
X264750Y140250D02*
D03*
Y124750D02*
D03*
D29*
X210000Y197250D02*
D03*
X196000D02*
D03*
D30*
X197250Y215500D02*
D03*
X206250D02*
D03*
D54*
X110250Y266750D02*
D03*
X125750D02*
D03*
X301500Y236750D02*
D03*
X317000D02*
D03*
D57*
X14000Y362000D02*
D03*
X370000D02*
D03*
X371000Y15000D02*
D03*
X14000Y14000D02*
D03*
D58*
X293750Y347750D02*
D03*
X309000Y38000D02*
D03*
X53000Y119000D02*
D03*
Y183750D02*
D03*
Y249500D02*
D03*
D59*
X318750Y347750D02*
D03*
X334000Y38000D02*
D03*
X28000Y119000D02*
D03*
Y183750D02*
D03*
Y249500D02*
D03*
D60*
X285500Y195650D02*
D03*
D61*
Y170250D02*
D03*
D62*
X366500Y223250D02*
D03*
Y193250D02*
D03*
M02*
