G04*
G04 #@! TF.GenerationSoftware,Altium Limited,Altium Designer,22.9.1 (49)*
G04*
G04 Layer_Color=32768*
%FSLAX44Y44*%
%MOMM*%
G71*
G04*
G04 #@! TF.SameCoordinates,C8543A43-BB23-4CB5-9DBE-1C6E9BA76EC2*
G04*
G04*
G04 #@! TF.FilePolarity,Positive*
G04*
G01*
G75*
%ADD10C,0.1000*%
%ADD72C,0.0500*%
D10*
X328500Y96250D02*
Y106250D01*
X323500Y101250D02*
X333500D01*
X229250Y251000D02*
Y290000D01*
Y251000D02*
X268250D01*
Y290000D01*
X229250D02*
X268250D01*
X325600Y283500D02*
Y293500D01*
X320600Y288500D02*
X330600D01*
X55500Y331000D02*
X65500D01*
X60500Y326000D02*
Y336000D01*
Y49750D02*
Y59750D01*
X55500Y54750D02*
X65500D01*
X246750Y119950D02*
Y129550D01*
X241950Y124750D02*
X251550D01*
X366000Y273250D02*
X375000D01*
X370500Y268750D02*
Y277750D01*
X242700Y242250D02*
X252300D01*
X247500Y237450D02*
Y247050D01*
X275000Y283250D02*
X284000D01*
X279500Y278750D02*
Y287750D01*
X308250Y251000D02*
Y260000D01*
X303750Y255500D02*
X312750D01*
X121250Y186750D02*
X131250D01*
X126250Y181750D02*
Y191750D01*
X337250Y139250D02*
Y147250D01*
X333250Y143250D02*
X341250D01*
X367750Y310750D02*
X375750D01*
X371750Y306750D02*
Y314750D01*
X367749Y310637D02*
X375749D01*
X371749Y306637D02*
Y314637D01*
X301200Y267500D02*
X310800D01*
X306000Y262700D02*
Y272300D01*
X225500Y154250D02*
Y162250D01*
X221500Y158250D02*
X229500D01*
X311950Y177750D02*
X321550D01*
X316750Y172950D02*
Y182550D01*
X280500Y182950D02*
X290500D01*
X285500Y177950D02*
Y187950D01*
X151501Y12387D02*
Y20387D01*
X147501Y16387D02*
X155501D01*
X151500Y12500D02*
Y20500D01*
X147500Y16500D02*
X155500D01*
X151750Y49500D02*
Y57500D01*
X147750Y53500D02*
X155750D01*
X203000Y192500D02*
Y202000D01*
X198250Y197250D02*
X207750D01*
X201750Y212750D02*
Y218250D01*
X199000Y215500D02*
X204500D01*
X359750Y332000D02*
X367750D01*
X363750Y328000D02*
Y336000D01*
X260750Y132500D02*
X268750D01*
X264750Y128500D02*
Y136500D01*
X118000Y262750D02*
Y270750D01*
X114000Y266750D02*
X122000D01*
X309250Y232750D02*
Y240750D01*
X305250Y236750D02*
X313250D01*
X372501Y147113D02*
Y155113D01*
X368501Y151113D02*
X376501D01*
X372500Y147000D02*
Y155000D01*
X368500Y151000D02*
X376500D01*
X332000Y317750D02*
X340000D01*
X336000Y313750D02*
Y321750D01*
X247750Y167000D02*
X257250D01*
X252500Y162250D02*
Y171750D01*
X300950Y302250D02*
X310550D01*
X305750Y297450D02*
Y307050D01*
X193250Y157250D02*
Y166750D01*
X188500Y162000D02*
X198000D01*
X175000Y118950D02*
Y128550D01*
X170200Y123750D02*
X179800D01*
X158500Y119700D02*
Y129300D01*
X153700Y124500D02*
X163300D01*
D72*
X271500Y58250D02*
X385500D01*
X271500Y144250D02*
X385500D01*
Y58250D02*
Y144250D01*
X271500Y58250D02*
Y144250D01*
X291705Y267500D02*
X359495D01*
X291705Y309500D02*
X359495D01*
Y267500D02*
Y309500D01*
X291705Y267500D02*
Y309500D01*
X117500Y288000D02*
Y374000D01*
X3500Y288000D02*
Y374000D01*
Y288000D02*
X117500D01*
X3500Y374000D02*
X117500D01*
X112500Y311100D02*
Y365400D01*
Y311100D02*
X188000D01*
Y365400D01*
X112500D02*
X188000D01*
X264750Y311100D02*
Y365400D01*
X189250D02*
X264750D01*
X189250Y311100D02*
Y365400D01*
Y311100D02*
X264750D01*
X3500Y97750D02*
X117500D01*
X3500Y11750D02*
X117500D01*
X3500D02*
Y97750D01*
X117500Y11750D02*
Y97750D01*
X239250Y138250D02*
X254250D01*
X239250Y111250D02*
X254250D01*
Y138250D01*
X239250Y111250D02*
Y138250D01*
X360500Y256750D02*
Y289750D01*
X380500Y256750D02*
Y289750D01*
X360500Y256750D02*
X380500D01*
X360500Y289750D02*
X380500D01*
X234000Y234750D02*
Y249750D01*
X261000Y234750D02*
Y249750D01*
X234000D02*
X261000D01*
X234000Y234750D02*
X261000D01*
X289500Y266750D02*
Y299750D01*
X269500Y266750D02*
Y299750D01*
X289500D01*
X269500Y266750D02*
X289500D01*
X291750Y265500D02*
X324750D01*
X291750Y245500D02*
X324750D01*
X291750D02*
Y265500D01*
X324750Y245500D02*
Y265500D01*
X69250Y143750D02*
Y229750D01*
X183250Y143750D02*
Y229750D01*
X69250D02*
X183250D01*
X69250Y143750D02*
X183250D01*
X322750Y150250D02*
X351750D01*
X322750Y136250D02*
X351750D01*
Y150250D01*
X322750Y136250D02*
Y150250D01*
X292500Y260000D02*
Y275000D01*
X319500Y260000D02*
Y275000D01*
X292500Y260000D02*
X319500D01*
X292500Y275000D02*
X319500D01*
X211000Y151250D02*
X240000D01*
X211000Y165250D02*
X240000D01*
X211000Y151250D02*
Y165250D01*
X240000Y151250D02*
Y165250D01*
X303250Y170250D02*
Y185250D01*
X330250Y170250D02*
Y185250D01*
X303250Y170250D02*
X330250D01*
X303250Y185250D02*
X330250D01*
X298200Y158600D02*
Y207300D01*
X272800Y158600D02*
Y207300D01*
X298200D01*
X272800Y158600D02*
X298200D01*
X394000Y169750D02*
Y246750D01*
X332000D02*
X394000D01*
X332000Y169750D02*
Y246750D01*
Y169750D02*
X394000D01*
X144750Y68000D02*
X158750D01*
X144750Y39000D02*
X158750D01*
Y68000D01*
X144750Y39000D02*
Y68000D01*
X186500Y186750D02*
X219500D01*
X186500Y207750D02*
X219500D01*
Y186750D02*
Y207750D01*
X186500Y186750D02*
Y207750D01*
X192750Y220000D02*
X210750D01*
X192750Y211000D02*
X210750D01*
X192750D02*
Y220000D01*
X210750Y211000D02*
Y220000D01*
X370750Y317500D02*
Y346500D01*
X356750Y317500D02*
Y346500D01*
X370750D01*
X356750Y317500D02*
X370750D01*
X271750Y118000D02*
Y147000D01*
X257750Y118000D02*
Y147000D01*
X271750D01*
X257750Y118000D02*
X271750D01*
X103500Y273750D02*
X132500D01*
X103500Y259750D02*
X132500D01*
X103500D02*
Y273750D01*
X132500Y259750D02*
Y273750D01*
X294750Y243750D02*
X323750D01*
X294750Y229750D02*
X323750D01*
X294750D02*
Y243750D01*
X323750Y229750D02*
Y243750D01*
X321500Y310750D02*
Y324750D01*
X350500Y310750D02*
Y324750D01*
X321500Y310750D02*
X350500D01*
X321500Y324750D02*
X350500D01*
X242000Y150500D02*
Y183500D01*
X263000Y150500D02*
Y183500D01*
X242000D02*
X263000D01*
X242000Y150500D02*
X263000D01*
X292250Y294750D02*
Y309750D01*
X319250Y294750D02*
Y309750D01*
X292250Y294750D02*
X319250D01*
X292250Y309750D02*
X319250D01*
X176750Y172500D02*
X209750D01*
X176750Y151500D02*
X209750D01*
Y172500D01*
X176750Y151500D02*
Y172500D01*
X167500Y110250D02*
X182500D01*
X167500Y137250D02*
X182500D01*
Y110250D02*
Y137250D01*
X167500Y110250D02*
Y137250D01*
X151000Y111000D02*
X166000D01*
X151000Y138000D02*
X166000D01*
Y111000D02*
Y138000D01*
X151000Y111000D02*
Y138000D01*
M02*
