G04*
G04 #@! TF.GenerationSoftware,Altium Limited,Altium Designer,22.9.1 (49)*
G04*
G04 Layer_Color=255*
%FSLAX44Y44*%
%MOMM*%
G71*
G04*
G04 #@! TF.SameCoordinates,C8543A43-BB23-4CB5-9DBE-1C6E9BA76EC2*
G04*
G04*
G04 #@! TF.FilePolarity,Positive*
G04*
G01*
G75*
%ADD21R,1.0000X0.9000*%
%ADD23R,0.9000X1.0000*%
%ADD27R,0.8000X0.8000*%
%ADD29R,0.9000X1.0500*%
%ADD54R,0.8500X0.8500*%
%ADD57C,1.0000*%
G04:AMPARAMS|DCode=58|XSize=1.7mm|YSize=2mm|CornerRadius=0.425mm|HoleSize=0mm|Usage=FLASHONLY|Rotation=0.000|XOffset=0mm|YOffset=0mm|HoleType=Round|Shape=RoundedRectangle|*
%AMROUNDEDRECTD58*
21,1,1.7000,1.1500,0,0,0.0*
21,1,0.8500,2.0000,0,0,0.0*
1,1,0.8500,0.4250,-0.5750*
1,1,0.8500,-0.4250,-0.5750*
1,1,0.8500,-0.4250,0.5750*
1,1,0.8500,0.4250,0.5750*
%
%ADD58ROUNDEDRECTD58*%
%ADD59O,1.7000X2.0000*%
%ADD60C,1.4000*%
%ADD61R,1.4000X1.4000*%
%ADD62C,0.8500*%
%ADD65R,0.8552X0.8121*%
%ADD66R,0.8121X0.8552*%
%ADD67R,0.3500X0.8500*%
%ADD68R,1.0500X0.9000*%
D21*
X175000Y117000D02*
D03*
Y130500D02*
D03*
X158500Y117750D02*
D03*
Y131250D02*
D03*
D23*
X299250Y267500D02*
D03*
X312750D02*
D03*
X310000Y177750D02*
D03*
X323500D02*
D03*
X299000Y302250D02*
D03*
X312500D02*
D03*
D27*
X371750Y303250D02*
D03*
Y318250D02*
D03*
X372500Y143500D02*
D03*
Y158500D02*
D03*
D29*
X200250Y162000D02*
D03*
X186250D02*
D03*
D54*
X345000Y143250D02*
D03*
X329500D02*
D03*
X217750Y158250D02*
D03*
X233250D02*
D03*
X328250Y317750D02*
D03*
X343750D02*
D03*
D57*
X14000Y362000D02*
D03*
X370000D02*
D03*
X371000Y15000D02*
D03*
X14000Y14000D02*
D03*
D58*
X293750Y347750D02*
D03*
X309000Y38000D02*
D03*
X53000Y119000D02*
D03*
Y183750D02*
D03*
Y249500D02*
D03*
D59*
X318750Y347750D02*
D03*
X334000Y38000D02*
D03*
X28000Y119000D02*
D03*
Y183750D02*
D03*
Y249500D02*
D03*
D60*
X285500Y195650D02*
D03*
D61*
Y170250D02*
D03*
D62*
X366500Y223250D02*
D03*
Y193250D02*
D03*
D65*
X322005Y160500D02*
D03*
X309495D02*
D03*
X33740Y283000D02*
D03*
X46250D02*
D03*
X33740Y218250D02*
D03*
X46250D02*
D03*
X33740Y150500D02*
D03*
X46250D02*
D03*
X312760Y285250D02*
D03*
X300250D02*
D03*
D66*
X191500Y130005D02*
D03*
Y117495D02*
D03*
D67*
X228500Y141000D02*
D03*
X219000D02*
D03*
X209500D02*
D03*
Y118500D02*
D03*
X219000D02*
D03*
X228500D02*
D03*
D68*
X252500Y174000D02*
D03*
Y160000D02*
D03*
M02*
