G04*
G04 #@! TF.GenerationSoftware,Altium Limited,Altium Designer,22.9.1 (49)*
G04*
G04 Layer_Color=2752767*
%FSLAX44Y44*%
%MOMM*%
G71*
G04*
G04 #@! TF.SameCoordinates,C8543A43-BB23-4CB5-9DBE-1C6E9BA76EC2*
G04*
G04*
G04 #@! TF.FilePolarity,Positive*
G04*
G01*
G75*
%ADD75C,0.0677*%
%ADD76C,0.0508*%
D75*
X16032Y362000D02*
G03*
X16032Y362000I-2032J0D01*
G01*
X372032D02*
G03*
X372032Y362000I-2032J0D01*
G01*
X373032Y15000D02*
G03*
X373032Y15000I-2032J0D01*
G01*
X16032Y14000D02*
G03*
X16032Y14000I-2032J0D01*
G01*
D76*
X291718Y345718D02*
Y349782D01*
X295782D01*
Y345718D01*
X291718D01*
X316718D02*
Y349782D01*
X320782D01*
Y345718D01*
X316718D01*
X331968Y35968D02*
Y40032D01*
X336032D01*
Y35968D01*
X331968D01*
X306968D02*
Y40032D01*
X311032D01*
Y35968D01*
X306968D01*
X25968Y116968D02*
Y121032D01*
X30032D01*
Y116968D01*
X25968D01*
X50968D02*
Y121032D01*
X55032D01*
Y116968D01*
X50968D01*
X25968Y181718D02*
Y185782D01*
X30032D01*
Y181718D01*
X25968D01*
X50968D02*
Y185782D01*
X55032D01*
Y181718D01*
X50968D01*
X25968Y247468D02*
Y251532D01*
X30032D01*
Y247468D01*
X25968D01*
X50968D02*
Y251532D01*
X55032D01*
Y247468D01*
X50968D01*
X283468Y193618D02*
X284484Y195650D01*
X283468Y197682D01*
X285500Y196666D01*
X287532Y197682D01*
X286516Y195650D01*
X287532Y193618D01*
X285500Y194634D01*
X283468Y193618D01*
Y168218D02*
X284484Y170250D01*
X283468Y172282D01*
X285500Y171266D01*
X287532Y172282D01*
X286516Y170250D01*
X287532Y168218D01*
X285500Y169234D01*
X283468Y168218D01*
X366500Y221218D02*
X364468Y225282D01*
X368532D01*
X366500Y221218D01*
Y191218D02*
X364468Y195282D01*
X368532D01*
X366500Y191218D01*
X332984Y99784D02*
Y98768D01*
X335016D01*
Y99784D01*
X336032D01*
Y101816D01*
X335016D01*
Y102832D01*
X332984D01*
Y101816D01*
X331968D01*
Y99784D01*
X332984D01*
X205984Y252184D02*
Y251168D01*
X208016D01*
Y252184D01*
X209032D01*
Y254216D01*
X208016D01*
Y255232D01*
X205984D01*
Y254216D01*
X204968D01*
Y252184D01*
X205984D01*
X180584Y302984D02*
Y301968D01*
X182616D01*
Y302984D01*
X183632D01*
Y305016D01*
X182616D01*
Y306032D01*
X180584D01*
Y305016D01*
X179568D01*
Y302984D01*
X180584D01*
X155184Y252184D02*
Y251168D01*
X157216D01*
Y252184D01*
X158232D01*
Y254216D01*
X157216D01*
Y255232D01*
X155184D01*
Y254216D01*
X154168D01*
Y252184D01*
X155184D01*
X180584Y201384D02*
Y200368D01*
X182616D01*
Y201384D01*
X183632D01*
Y203416D01*
X182616D01*
Y204432D01*
X180584D01*
Y203416D01*
X179568D01*
Y201384D01*
X180584D01*
X155184Y150584D02*
Y149568D01*
X157216D01*
Y150584D01*
X158232D01*
Y152616D01*
X157216D01*
Y153632D01*
X155184D01*
Y152616D01*
X154168D01*
Y150584D01*
X155184D01*
X180584Y99784D02*
Y98768D01*
X182616D01*
Y99784D01*
X183632D01*
Y101816D01*
X182616D01*
Y102832D01*
X180584D01*
Y101816D01*
X179568D01*
Y99784D01*
X180584D01*
X229750Y286718D02*
X230766Y287734D01*
X231782D01*
X230766Y288750D01*
X231782Y289766D01*
X230766D01*
X229750Y290782D01*
X228734Y289766D01*
X227718D01*
X228734Y288750D01*
X227718Y287734D01*
X228734D01*
X229750Y286718D01*
X243092Y141348D02*
X244108Y142364D01*
X245124D01*
X244108Y143380D01*
X245124Y144396D01*
X244108D01*
X243092Y145412D01*
X242076Y144396D01*
X241060D01*
X242076Y143380D01*
X241060Y142364D01*
X242076D01*
X243092Y141348D01*
X139984Y114984D02*
Y113968D01*
X142016D01*
Y114984D01*
X143032D01*
Y117016D01*
X142016D01*
Y118032D01*
X139984D01*
Y117016D01*
X138968D01*
Y114984D01*
X139984D01*
X238750Y361468D02*
X239766Y362484D01*
X240782D01*
X239766Y363500D01*
X240782Y364516D01*
X239766D01*
X238750Y365532D01*
X237734Y364516D01*
X236718D01*
X237734Y363500D01*
X236718Y362484D01*
X237734D01*
X238750Y361468D01*
X133750Y301218D02*
X134766Y302234D01*
X135782D01*
X134766Y303250D01*
X135782Y304266D01*
X134766D01*
X133750Y305282D01*
X132734Y304266D01*
X131718D01*
X132734Y303250D01*
X131718Y302234D01*
X132734D01*
X133750Y301218D01*
X251500Y186808D02*
X252516Y187824D01*
X253532D01*
X252516Y188840D01*
X253532Y189856D01*
X252516D01*
X251500Y190872D01*
X250484Y189856D01*
X249468D01*
X250484Y188840D01*
X249468Y187824D01*
X250484D01*
X251500Y186808D01*
X233750Y168968D02*
X234766Y169984D01*
X235782D01*
X234766Y171000D01*
X235782Y172016D01*
X234766D01*
X233750Y173032D01*
X232734Y172016D01*
X231718D01*
X232734Y171000D01*
X231718Y169984D01*
X232734D01*
X233750Y168968D01*
X217984Y104234D02*
Y103218D01*
X220016D01*
Y104234D01*
X221032D01*
Y106266D01*
X220016D01*
Y107282D01*
X217984D01*
Y106266D01*
X216968D01*
Y104234D01*
X217984D01*
X297005Y138718D02*
X298021Y139734D01*
X299037D01*
X298021Y140750D01*
X299037Y141766D01*
X298021D01*
X297005Y142782D01*
X295989Y141766D01*
X294973D01*
X295989Y140750D01*
X294973Y139734D01*
X295989D01*
X297005Y138718D01*
M02*
