M48
;Layer_Color=9474304
;FILE_FORMAT=2:5
INCH,LZ
;TYPE=PLATED
T1F00S00C0.01181
T2F00S00C0.01500
T3F00S00C0.03504
T4F00S00C0.03937
T5F00S00C0.07874
;TYPE=NON_PLATED
T6F00S00C0.03346
%
T01
X0095705Y0056449
X0092028Y0067323
X0099016Y0074347
X0116931Y0055413
X0090453Y0113681
X0093996Y014311
X0052658Y011939
T02
X0055512Y0045669
X0061496Y0059685
X0071496Y0079685
X0081496Y0099685
X0061496
X0071496Y0119685
Y0039685
X0086221Y0041437
X0131496Y0039685
T03
X0112402Y0067028
Y0077028
T04
X0011024Y004685
X0020866
Y0072342
X0011024
Y0098228
X0020866
X011565Y0136909
X0125492
X0121653Y0014961
X0131496
T05
X0005512Y0005512
Y014252
X0145669
X0146063Y0005906
T06
X0144291Y0076083
Y0087894
M30
