G04*
G04 #@! TF.GenerationSoftware,Altium Limited,Altium Designer,22.9.1 (49)*
G04*
G04 Layer_Color=16711935*
%FSLAX44Y44*%
%MOMM*%
G71*
G04*
G04 #@! TF.SameCoordinates,C8543A43-BB23-4CB5-9DBE-1C6E9BA76EC2*
G04*
G04*
G04 #@! TF.FilePolarity,Negative*
G04*
G01*
G75*
%ADD35R,1.1524X1.0524*%
%ADD37R,1.0524X1.1524*%
%ADD41R,1.0032X1.0032*%
%ADD43R,1.1032X1.2532*%
%ADD45R,1.0532X1.0532*%
%ADD46C,1.2032*%
G04:AMPARAMS|DCode=47|XSize=1.9032mm|YSize=2.2032mm|CornerRadius=0.5266mm|HoleSize=0mm|Usage=FLASHONLY|Rotation=0.000|XOffset=0mm|YOffset=0mm|HoleType=Round|Shape=RoundedRectangle|*
%AMROUNDEDRECTD47*
21,1,1.9032,1.1500,0,0,0.0*
21,1,0.8500,2.2032,0,0,0.0*
1,1,1.0532,0.4250,-0.5750*
1,1,1.0532,-0.4250,-0.5750*
1,1,1.0532,-0.4250,0.5750*
1,1,1.0532,0.4250,0.5750*
%
%ADD47ROUNDEDRECTD47*%
%ADD48O,1.9032X2.2032*%
%ADD49C,1.6032*%
%ADD50R,1.6032X1.6032*%
%ADD51C,1.0532*%
%ADD52C,0.9652*%
%ADD53C,0.8032*%
%ADD65R,0.8552X0.8121*%
%ADD66R,0.8121X0.8552*%
%ADD70R,0.5532X1.0532*%
%ADD71R,1.2532X1.1032*%
D35*
X175000Y117000D02*
D03*
Y130500D02*
D03*
X158500Y117750D02*
D03*
Y131250D02*
D03*
D37*
X299250Y267500D02*
D03*
X312750D02*
D03*
X310000Y177750D02*
D03*
X323500D02*
D03*
X299000Y302250D02*
D03*
X312500D02*
D03*
D41*
X371750Y303250D02*
D03*
Y318250D02*
D03*
X372500Y143500D02*
D03*
Y158500D02*
D03*
D43*
X200250Y162000D02*
D03*
X186250D02*
D03*
D45*
X345000Y143250D02*
D03*
X329500D02*
D03*
X217750Y158250D02*
D03*
X233250D02*
D03*
X328250Y317750D02*
D03*
X343750D02*
D03*
D46*
X14000Y362000D02*
D03*
X370000D02*
D03*
X371000Y15000D02*
D03*
X14000Y14000D02*
D03*
D47*
X293750Y347750D02*
D03*
X309000Y38000D02*
D03*
X53000Y119000D02*
D03*
Y183750D02*
D03*
Y249500D02*
D03*
D48*
X318750Y347750D02*
D03*
X334000Y38000D02*
D03*
X28000Y119000D02*
D03*
Y183750D02*
D03*
Y249500D02*
D03*
D49*
X285500Y195650D02*
D03*
D50*
Y170250D02*
D03*
D51*
X366500Y223250D02*
D03*
Y193250D02*
D03*
D52*
X334000Y100800D02*
D03*
X207000Y253200D02*
D03*
X181600Y304000D02*
D03*
X156200Y253200D02*
D03*
X181600Y202400D02*
D03*
X156200Y151600D02*
D03*
X181600Y100800D02*
D03*
X141000Y116000D02*
D03*
X219000Y105250D02*
D03*
D53*
X229750Y288750D02*
D03*
X243092Y143380D02*
D03*
X238750Y363500D02*
D03*
X133750Y303250D02*
D03*
X251500Y188840D02*
D03*
X233750Y171000D02*
D03*
X297005Y140750D02*
D03*
D65*
X322005Y160500D02*
D03*
X309495D02*
D03*
X33740Y283000D02*
D03*
X46250D02*
D03*
X33740Y218250D02*
D03*
X46250D02*
D03*
X33740Y150500D02*
D03*
X46250D02*
D03*
X312760Y285250D02*
D03*
X300250D02*
D03*
D66*
X191500Y130005D02*
D03*
Y117495D02*
D03*
D70*
X228500Y141000D02*
D03*
X219000D02*
D03*
X209500D02*
D03*
Y118500D02*
D03*
X219000D02*
D03*
X228500D02*
D03*
D71*
X252500Y174000D02*
D03*
Y160000D02*
D03*
M02*
