G04*
G04 #@! TF.GenerationSoftware,Altium Limited,Altium Designer,22.9.1 (49)*
G04*
G04 Layer_Physical_Order=2*
G04 Layer_Color=16711680*
%FSLAX44Y44*%
%MOMM*%
G71*
G04*
G04 #@! TF.SameCoordinates,C8543A43-BB23-4CB5-9DBE-1C6E9BA76EC2*
G04*
G04*
G04 #@! TF.FilePolarity,Positive*
G04*
G01*
G75*
%ADD13C,0.2540*%
%ADD21R,1.0000X0.9000*%
%ADD23R,0.9000X1.0000*%
%ADD27R,0.8000X0.8000*%
%ADD29R,0.9000X1.0500*%
%ADD54R,0.8500X0.8500*%
%ADD56C,1.0000*%
%ADD57C,1.0000*%
G04:AMPARAMS|DCode=58|XSize=1.7mm|YSize=2mm|CornerRadius=0.425mm|HoleSize=0mm|Usage=FLASHONLY|Rotation=0.000|XOffset=0mm|YOffset=0mm|HoleType=Round|Shape=RoundedRectangle|*
%AMROUNDEDRECTD58*
21,1,1.7000,1.1500,0,0,0.0*
21,1,0.8500,2.0000,0,0,0.0*
1,1,0.8500,0.4250,-0.5750*
1,1,0.8500,-0.4250,-0.5750*
1,1,0.8500,-0.4250,0.5750*
1,1,0.8500,0.4250,0.5750*
%
%ADD58ROUNDEDRECTD58*%
%ADD59O,1.7000X2.0000*%
%ADD60C,1.4000*%
%ADD61R,1.4000X1.4000*%
%ADD62C,0.8500*%
%ADD63C,0.7620*%
%ADD64C,0.6000*%
%ADD65R,0.8552X0.8121*%
%ADD66R,0.8121X0.8552*%
%ADD67R,0.3500X0.8500*%
%ADD68R,1.0500X0.9000*%
%ADD69C,0.8000*%
G36*
X361386Y371121D02*
X359966Y369700D01*
X358315Y366840D01*
X357460Y363651D01*
Y360349D01*
X358315Y357160D01*
X359966Y354300D01*
X362300Y351965D01*
X365160Y350315D01*
X368349Y349460D01*
X371651D01*
X374840Y350315D01*
X377700Y351965D01*
X380034Y354300D01*
X380164Y354524D01*
X381391Y354196D01*
X381391Y24140D01*
X380121Y23614D01*
X378700Y25034D01*
X375840Y26685D01*
X372651Y27540D01*
X369349D01*
X366160Y26685D01*
X363300Y25034D01*
X360965Y22700D01*
X359315Y19840D01*
X358460Y16651D01*
Y13349D01*
X359315Y10160D01*
X360965Y7300D01*
X363300Y4965D01*
X363524Y4836D01*
X363196Y3609D01*
X23140D01*
X22614Y4879D01*
X24035Y6300D01*
X25685Y9160D01*
X26540Y12349D01*
Y15651D01*
X25685Y18840D01*
X24035Y21700D01*
X21700Y24035D01*
X18840Y25685D01*
X15651Y26540D01*
X12349D01*
X9160Y25685D01*
X6300Y24035D01*
X4879Y22614D01*
X3609Y23140D01*
Y352860D01*
X4879Y353386D01*
X6300Y351965D01*
X9160Y350315D01*
X12349Y349460D01*
X15651D01*
X18840Y350315D01*
X21700Y351965D01*
X24035Y354300D01*
X25685Y357160D01*
X26540Y360349D01*
Y363651D01*
X25685Y366840D01*
X24035Y369700D01*
X22614Y371121D01*
X23140Y372391D01*
X360860D01*
X361386Y371121D01*
D02*
G37*
%LPC*%
G36*
X239852Y369040D02*
X237648D01*
X235612Y368197D01*
X234138Y366723D01*
X233219D01*
X231732Y366427D01*
X230472Y365585D01*
X227003Y362116D01*
X226161Y360856D01*
X225865Y359369D01*
Y292700D01*
X225800Y292635D01*
X149859D01*
X139290Y303204D01*
Y304352D01*
X138447Y306388D01*
X136888Y307947D01*
X134852Y308790D01*
X132648D01*
X130612Y307947D01*
X129053Y306388D01*
X128210Y304352D01*
Y302148D01*
X129053Y300112D01*
X130612Y298553D01*
X132648Y297710D01*
X133796D01*
X145503Y286003D01*
X146763Y285161D01*
X148250Y284865D01*
X225800D01*
X226612Y284053D01*
X228648Y283210D01*
X230852D01*
X232888Y284053D01*
X234447Y285612D01*
X235290Y287648D01*
Y289852D01*
X234447Y291888D01*
X233635Y292700D01*
Y357760D01*
X234828Y358953D01*
X235462D01*
X235612Y358803D01*
X237648Y357960D01*
X239852D01*
X241888Y358803D01*
X243447Y360362D01*
X244290Y362398D01*
Y364602D01*
X243447Y366638D01*
X241888Y368197D01*
X239852Y369040D01*
D02*
G37*
G36*
X378290Y324790D02*
X365210D01*
Y321635D01*
X350540D01*
Y324540D01*
X336960D01*
Y310960D01*
X350540D01*
Y313865D01*
X365210D01*
Y311710D01*
X378290D01*
Y324790D01*
D02*
G37*
G36*
X298000Y360349D02*
X289500D01*
X287728Y360115D01*
X286076Y359431D01*
X284657Y358343D01*
X283569Y356924D01*
X282885Y355273D01*
X282651Y353500D01*
Y342000D01*
X282885Y340227D01*
X283569Y338576D01*
X284657Y337157D01*
X286076Y336069D01*
X287728Y335385D01*
X289500Y335151D01*
X295115D01*
Y309790D01*
X291960D01*
Y294710D01*
X295115D01*
Y291851D01*
X293434D01*
Y278649D01*
X295365D01*
Y275040D01*
X292210D01*
Y259960D01*
X306290D01*
Y275040D01*
X303135D01*
Y278649D01*
X307066D01*
Y291851D01*
X302885D01*
Y294710D01*
X306040D01*
Y304296D01*
X306937Y305193D01*
X307779Y306453D01*
X307896Y307040D01*
X314721Y313865D01*
X321460D01*
Y310960D01*
X335040D01*
Y324540D01*
X321460D01*
Y321635D01*
X313112D01*
X311625Y321339D01*
X310365Y320497D01*
X304058Y314190D01*
X302885Y314676D01*
Y337212D01*
X303931Y338576D01*
X304615Y340227D01*
X304849Y342000D01*
Y353500D01*
X304615Y355273D01*
X303931Y356924D01*
X302843Y358343D01*
X301424Y359431D01*
X299773Y360115D01*
X298000Y360349D01*
D02*
G37*
G36*
X367394Y230040D02*
X365606D01*
X363879Y229577D01*
X362331Y228683D01*
X361067Y227419D01*
X360173Y225871D01*
X359710Y224144D01*
Y222356D01*
X360173Y220629D01*
X361067Y219081D01*
X362331Y217817D01*
X363879Y216923D01*
X365606Y216460D01*
X367394D01*
X369121Y216923D01*
X370669Y217817D01*
X371933Y219081D01*
X372827Y220629D01*
X373290Y222356D01*
Y224144D01*
X372827Y225871D01*
X371933Y227419D01*
X370669Y228683D01*
X369121Y229577D01*
X367394Y230040D01*
D02*
G37*
G36*
Y200040D02*
X365606D01*
X363879Y199577D01*
X362331Y198683D01*
X361067Y197419D01*
X360173Y195871D01*
X359710Y194144D01*
Y192356D01*
X360173Y190629D01*
X361067Y189081D01*
X362331Y187817D01*
X363879Y186923D01*
X365606Y186460D01*
X367394D01*
X369121Y186923D01*
X370669Y187817D01*
X371933Y189081D01*
X372827Y190629D01*
X373290Y192356D01*
Y194144D01*
X372827Y195871D01*
X371933Y197419D01*
X370669Y198683D01*
X369121Y199577D01*
X367394Y200040D01*
D02*
G37*
G36*
X286756Y205190D02*
X284244D01*
X281818Y204540D01*
X279642Y203284D01*
X277866Y201508D01*
X276610Y199332D01*
X275960Y196906D01*
Y194394D01*
X276610Y191968D01*
X277866Y189792D01*
X279642Y188016D01*
X281818Y186760D01*
X284244Y186110D01*
X286756D01*
X289182Y186760D01*
X291358Y188016D01*
X293134Y189792D01*
X294390Y191968D01*
X295040Y194394D01*
Y196906D01*
X294390Y199332D01*
X293134Y201508D01*
X291358Y203284D01*
X289182Y204540D01*
X286756Y205190D01*
D02*
G37*
G36*
X295040Y179790D02*
X275960D01*
Y160710D01*
X295040D01*
Y179790D01*
D02*
G37*
G36*
X252602Y194380D02*
X250398D01*
X248362Y193537D01*
X246803Y191978D01*
X245960Y189942D01*
Y187738D01*
X246803Y185702D01*
X247615Y184890D01*
Y181040D01*
X244710D01*
Y166960D01*
Y157145D01*
X244635Y156770D01*
Y156129D01*
X242581Y154075D01*
X240040D01*
Y165040D01*
X237635D01*
Y167050D01*
X238447Y167862D01*
X239290Y169898D01*
Y172102D01*
X238447Y174138D01*
X236888Y175697D01*
X234852Y176540D01*
X232648D01*
X230612Y175697D01*
X229053Y174138D01*
X228210Y172102D01*
Y169898D01*
X229053Y167862D01*
X229865Y167050D01*
Y165040D01*
X226460D01*
Y155092D01*
X225646Y154734D01*
X224540Y155552D01*
Y165040D01*
X216308D01*
X215487Y165589D01*
X214000Y165885D01*
X207290D01*
Y169790D01*
X193210D01*
Y154210D01*
X206420D01*
X206946Y152940D01*
X206753Y152747D01*
X205911Y151487D01*
X205615Y150000D01*
Y147790D01*
X205210D01*
Y134210D01*
X213790D01*
Y134210D01*
X214710D01*
Y134210D01*
X222940D01*
X223290Y134210D01*
Y134210D01*
X224210D01*
Y134210D01*
X232790D01*
Y140095D01*
X238542D01*
X239954Y138683D01*
X241990Y137840D01*
X244194D01*
X246230Y138683D01*
X247789Y140242D01*
X248632Y142278D01*
Y144482D01*
X247789Y146518D01*
X247783Y146524D01*
X247786Y148292D01*
X251267Y151773D01*
X252060Y152960D01*
X260290D01*
Y166960D01*
Y181040D01*
X255385D01*
Y184890D01*
X256197Y185702D01*
X257040Y187738D01*
Y189942D01*
X256197Y191978D01*
X254638Y193537D01*
X252602Y194380D01*
D02*
G37*
G36*
X379040Y150040D02*
X365960D01*
Y147135D01*
X351790D01*
Y150040D01*
X338210D01*
Y136460D01*
X351790D01*
Y139365D01*
X365960D01*
Y136960D01*
X379040D01*
Y150040D01*
D02*
G37*
G36*
X317040Y185290D02*
X302960D01*
Y170210D01*
X305611D01*
Y167101D01*
X302679D01*
Y153899D01*
X303001D01*
X303487Y152726D01*
X297051Y146290D01*
X295903D01*
X293867Y145447D01*
X292308Y143888D01*
X291465Y141852D01*
Y139648D01*
X292308Y137612D01*
X293867Y136053D01*
X295903Y135210D01*
X298107D01*
X300143Y136053D01*
X300955Y136865D01*
X322710D01*
Y136460D01*
X336290D01*
Y150040D01*
X322710D01*
Y144635D01*
X308043D01*
X307556Y145808D01*
X312242Y150493D01*
X313084Y151754D01*
X313380Y153240D01*
Y153899D01*
X316311D01*
Y167101D01*
X313380D01*
Y170210D01*
X317040D01*
Y185290D01*
D02*
G37*
G36*
X214710Y125290D02*
X213790D01*
X213790Y125290D01*
X205210D01*
Y124484D01*
X204263Y124092D01*
X198101D01*
Y124311D01*
X184899D01*
Y123605D01*
X182540D01*
Y124040D01*
X167460D01*
Y123605D01*
X166040D01*
Y124790D01*
X150960D01*
Y123605D01*
X141000D01*
X139032Y123346D01*
X137198Y122586D01*
X135622Y121378D01*
X134414Y119803D01*
X133654Y117968D01*
X133395Y116000D01*
X133654Y114032D01*
X134414Y112198D01*
X135622Y110622D01*
X137198Y109414D01*
X139032Y108654D01*
X141000Y108395D01*
X191500D01*
X193468Y108654D01*
X195303Y109414D01*
X196878Y110622D01*
X196921Y110679D01*
X198101D01*
Y110899D01*
X206495D01*
X208202Y111124D01*
X209618Y111710D01*
X212404D01*
Y105250D01*
X212628Y103543D01*
X213287Y101952D01*
X214336Y100586D01*
X215702Y99537D01*
X217293Y98878D01*
X219000Y98654D01*
X220707Y98878D01*
X222298Y99537D01*
X223664Y100586D01*
X224713Y101952D01*
X225372Y103543D01*
X225596Y105250D01*
Y118500D01*
X225372Y120207D01*
X224713Y121798D01*
X223664Y123164D01*
X223290Y123452D01*
Y125290D01*
X215023D01*
X214710Y125290D01*
D02*
G37*
G36*
X53066Y289601D02*
X39434D01*
Y276399D01*
X47572D01*
X49115Y274856D01*
Y262099D01*
X48750D01*
X46978Y261865D01*
X45326Y261181D01*
X43907Y260093D01*
X42819Y258674D01*
X42135Y257023D01*
X41901Y255250D01*
Y243750D01*
X42135Y241977D01*
X42819Y240326D01*
X43907Y238907D01*
X45326Y237819D01*
X46978Y237135D01*
X48750Y236901D01*
X49115D01*
Y226394D01*
X47572Y224851D01*
X39434D01*
Y211649D01*
X47572D01*
X49115Y210106D01*
Y196349D01*
X48750D01*
X46978Y196115D01*
X45326Y195431D01*
X43907Y194343D01*
X42819Y192924D01*
X42135Y191273D01*
X41901Y189500D01*
Y178000D01*
X42135Y176227D01*
X42819Y174576D01*
X43907Y173157D01*
X45326Y172069D01*
X46978Y171385D01*
X48750Y171151D01*
X49115D01*
Y158644D01*
X47572Y157101D01*
X39434D01*
Y143899D01*
X47572D01*
X49115Y142357D01*
Y131599D01*
X48750D01*
X46978Y131365D01*
X45326Y130681D01*
X43907Y129593D01*
X42819Y128174D01*
X42135Y126523D01*
X41901Y124750D01*
Y113250D01*
X42135Y111477D01*
X42819Y109826D01*
X43907Y108407D01*
X45326Y107319D01*
X46978Y106635D01*
X48750Y106401D01*
X57250D01*
X59022Y106635D01*
X60674Y107319D01*
X62093Y108407D01*
X63181Y109826D01*
X63865Y111477D01*
X64099Y113250D01*
Y124750D01*
X63865Y126523D01*
X63181Y128174D01*
X62093Y129593D01*
X60674Y130681D01*
X59022Y131365D01*
X57250Y131599D01*
X56885D01*
Y143966D01*
X56589Y145452D01*
X55747Y146712D01*
X53066Y149393D01*
Y151607D01*
X55747Y154288D01*
X56589Y155548D01*
X56885Y157035D01*
Y171151D01*
X57250D01*
X59022Y171385D01*
X60674Y172069D01*
X62093Y173157D01*
X63181Y174576D01*
X63865Y176227D01*
X64099Y178000D01*
Y189500D01*
X63865Y191273D01*
X63181Y192924D01*
X62093Y194343D01*
X60674Y195431D01*
X59022Y196115D01*
X57250Y196349D01*
X56885D01*
Y211716D01*
X56589Y213202D01*
X55747Y214462D01*
X53066Y217143D01*
Y219357D01*
X55747Y222038D01*
X56589Y223298D01*
X56885Y224785D01*
Y236901D01*
X57250D01*
X59022Y237135D01*
X60674Y237819D01*
X62093Y238907D01*
X63181Y240326D01*
X63865Y241977D01*
X64099Y243750D01*
Y255250D01*
X63865Y257023D01*
X63181Y258674D01*
X62093Y260093D01*
X60674Y261181D01*
X59022Y261865D01*
X57250Y262099D01*
X56885D01*
Y276465D01*
X56589Y277952D01*
X55747Y279212D01*
X53066Y281893D01*
Y289601D01*
D02*
G37*
G36*
X313250Y50599D02*
X304750D01*
X302977Y50365D01*
X301326Y49681D01*
X299907Y48593D01*
X298819Y47174D01*
X298135Y45523D01*
X297901Y43750D01*
Y32250D01*
X298135Y30477D01*
X298819Y28826D01*
X299907Y27407D01*
X301326Y26319D01*
X302977Y25635D01*
X304750Y25401D01*
X313250D01*
X315023Y25635D01*
X316674Y26319D01*
X318093Y27407D01*
X319181Y28826D01*
X319865Y30477D01*
X320099Y32250D01*
Y43750D01*
X319865Y45523D01*
X319181Y47174D01*
X318093Y48593D01*
X316674Y49681D01*
X315023Y50365D01*
X313250Y50599D01*
D02*
G37*
%LPD*%
D13*
X242492Y143980D02*
X243092Y143380D01*
X248520Y154520D02*
Y156770D01*
X251500Y175000D02*
X252500Y174000D01*
X309495Y153240D02*
Y160500D01*
X46250Y283000D02*
X46466D01*
X309495Y160500D02*
Y177245D01*
X46466Y150500D02*
X53000Y157035D01*
X345000Y143250D02*
X372250D01*
X46466Y218250D02*
X53000Y211716D01*
X299000Y302250D02*
Y302750D01*
X299250Y267500D02*
Y284250D01*
X304190Y307940D02*
Y308828D01*
X293750Y347750D02*
X299000Y342500D01*
X371250Y317750D02*
X371750Y318250D01*
X200250Y162000D02*
X214000D01*
X233219Y362838D02*
X238088D01*
X233750Y158750D02*
Y171000D01*
X219000Y141000D02*
Y143500D01*
X229750Y288750D02*
Y359369D01*
X228500Y143500D02*
X228980Y143980D01*
X53000Y224785D02*
Y249500D01*
X225690Y150190D02*
X244190D01*
X133750Y303250D02*
X148250Y288750D01*
X228980Y143980D02*
X242492D01*
X238088Y362838D02*
X238750Y363500D01*
X297005Y140750D02*
X309495Y153240D01*
X46466Y218250D02*
X53000Y224785D01*
X297005Y140750D02*
X327000D01*
X46250Y150500D02*
X46466D01*
X372250Y143250D02*
X372500Y143500D01*
X46466Y150500D02*
X53000Y143966D01*
X313112Y317750D02*
X328250D01*
X299250Y284250D02*
X300250Y285250D01*
X299000Y286500D02*
Y302250D01*
X343750Y317750D02*
X371250D01*
X209500Y141000D02*
Y150000D01*
X233250Y158250D02*
X233750Y158750D01*
X53000Y157035D02*
Y183750D01*
X250250Y158500D02*
X252500D01*
X53000Y249500D02*
Y276465D01*
X244190Y150190D02*
X248520Y154520D01*
X251500Y175000D02*
Y188840D01*
X44741Y218250D02*
X44956D01*
X309495Y177245D02*
X310000Y177750D01*
X46250Y218250D02*
X46466D01*
X327000Y140750D02*
X329500Y143250D01*
X46466Y283000D02*
X53000Y276465D01*
X299000Y302750D02*
X304190Y307940D01*
X53000Y119000D02*
Y143966D01*
X304190Y308828D02*
X313112Y317750D01*
X299000Y286500D02*
X300250Y285250D01*
X148250Y288750D02*
X229750D01*
X299000Y302750D02*
Y342500D01*
X214000Y162000D02*
X217750Y158250D01*
X229750Y359369D02*
X233219Y362838D01*
X219000Y143500D02*
X225690Y150190D01*
X209500Y150000D02*
X217750Y158250D01*
X228500Y141000D02*
Y143500D01*
X53000Y183750D02*
Y211716D01*
X248520Y156770D02*
X250250Y158500D01*
D21*
X175000Y117000D02*
D03*
Y130500D02*
D03*
X158500Y117750D02*
D03*
Y131250D02*
D03*
D23*
X299250Y267500D02*
D03*
X312750D02*
D03*
X310000Y177750D02*
D03*
X323500D02*
D03*
X299000Y302250D02*
D03*
X312500D02*
D03*
D27*
X371750Y303250D02*
D03*
Y318250D02*
D03*
X372500Y143500D02*
D03*
Y158500D02*
D03*
D29*
X200250Y162000D02*
D03*
X186250D02*
D03*
D54*
X345000Y143250D02*
D03*
X329500D02*
D03*
X217750Y158250D02*
D03*
X233250D02*
D03*
X328250Y317750D02*
D03*
X343750D02*
D03*
D56*
X141000Y116000D02*
X191500D01*
D57*
X14000Y362000D02*
D03*
X370000D02*
D03*
X371000Y15000D02*
D03*
X14000Y14000D02*
D03*
D58*
X293750Y347750D02*
D03*
X309000Y38000D02*
D03*
X53000Y119000D02*
D03*
Y183750D02*
D03*
Y249500D02*
D03*
D59*
X318750Y347750D02*
D03*
X334000Y38000D02*
D03*
X28000Y119000D02*
D03*
Y183750D02*
D03*
Y249500D02*
D03*
D60*
X285500Y195650D02*
D03*
D61*
Y170250D02*
D03*
D62*
X366500Y223250D02*
D03*
Y193250D02*
D03*
D63*
X334000Y100800D02*
D03*
X207000Y253200D02*
D03*
X181600Y304000D02*
D03*
X156200Y253200D02*
D03*
X181600Y202400D02*
D03*
X156200Y151600D02*
D03*
X181600Y100800D02*
D03*
X141000Y116000D02*
D03*
X219000Y105250D02*
D03*
D64*
X229750Y288750D02*
D03*
X243092Y143380D02*
D03*
X238750Y363500D02*
D03*
X133750Y303250D02*
D03*
X251500Y188840D02*
D03*
X233750Y171000D02*
D03*
X297005Y140750D02*
D03*
D65*
X322005Y160500D02*
D03*
X309495D02*
D03*
X33740Y283000D02*
D03*
X46250D02*
D03*
X33740Y218250D02*
D03*
X46250D02*
D03*
X33740Y150500D02*
D03*
X46250D02*
D03*
X312760Y285250D02*
D03*
X300250D02*
D03*
D66*
X191500Y130005D02*
D03*
Y117495D02*
D03*
D67*
X228500Y141000D02*
D03*
X219000D02*
D03*
X209500D02*
D03*
Y118500D02*
D03*
X219000D02*
D03*
X228500D02*
D03*
D68*
X252500Y174000D02*
D03*
Y160000D02*
D03*
D69*
X206495Y117495D02*
X207250Y118250D01*
X219000Y105250D02*
Y118500D01*
X191500Y117495D02*
X206495D01*
M02*
