G04*
G04 #@! TF.GenerationSoftware,Altium Limited,Altium Designer,22.9.1 (49)*
G04*
G04 Layer_Color=16711935*
%FSLAX44Y44*%
%MOMM*%
G71*
G04*
G04 #@! TF.SameCoordinates,C8543A43-BB23-4CB5-9DBE-1C6E9BA76EC2*
G04*
G04*
G04 #@! TF.FilePolarity,Positive*
G04*
G01*
G75*
%ADD10C,0.1000*%
%ADD12C,0.2000*%
%ADD14C,0.1270*%
%ADD73R,0.6187X3.9500*%
%ADD74R,0.8000X0.2152*%
D10*
X295500Y80875D02*
Y121625D01*
Y80875D02*
X308125Y68250D01*
X361500D01*
Y134250D01*
X308125D02*
X361500D01*
X295500Y121625D02*
X308125Y134250D01*
X302600Y268750D02*
X348600D01*
X302600Y308250D02*
X348600D01*
Y268750D02*
Y308250D01*
X302600Y268750D02*
Y308250D01*
X80875Y298000D02*
X93500Y310625D01*
X27500Y298000D02*
X80875D01*
X27500D02*
Y364000D01*
X80875D01*
X93500Y351375D01*
Y310625D02*
Y351375D01*
X130700Y349950D02*
X143400Y362650D01*
X130700Y313850D02*
Y362650D01*
Y313850D02*
X169800D01*
Y362650D01*
X130700D02*
X169800D01*
X233850Y313850D02*
X246550Y326550D01*
Y313850D02*
Y362650D01*
X207450D02*
X246550D01*
X207450Y313850D02*
Y362650D01*
Y313850D02*
X246550D01*
X93500Y34375D02*
Y75125D01*
X80875Y87750D02*
X93500Y75125D01*
X27500Y87750D02*
X80875D01*
X27500Y21750D02*
Y87750D01*
Y21750D02*
X80875D01*
X93500Y34375D01*
X241950Y133500D02*
X251550D01*
X241950Y116000D02*
X251550D01*
Y133500D01*
X241950Y116000D02*
Y133500D01*
X366000Y264750D02*
Y281750D01*
X375000Y264750D02*
Y281750D01*
X366000Y264750D02*
X375000D01*
X366000Y281750D02*
X375000D01*
X238750Y237450D02*
Y247050D01*
X256250Y237450D02*
Y247050D01*
X238750D02*
X256250D01*
X238750Y237450D02*
X256250D01*
X284000Y274750D02*
Y291750D01*
X275000Y274750D02*
Y291750D01*
X284000D01*
X275000Y274750D02*
X284000D01*
X299750Y260000D02*
X316750D01*
X299750Y251000D02*
X316750D01*
X299750D02*
Y260000D01*
X316750Y251000D02*
Y260000D01*
X93250Y207125D02*
X105875Y219750D01*
X159250D01*
Y153750D02*
Y219750D01*
X105875Y153750D02*
X159250D01*
X93250Y166375D02*
X105875Y153750D01*
X93250Y166375D02*
Y207125D01*
X329250Y147250D02*
X345250D01*
X329250Y139250D02*
X345250D01*
Y147250D01*
X329250Y139250D02*
Y147250D01*
X375749Y302637D02*
Y318637D01*
X367749Y302637D02*
Y318637D01*
Y302637D02*
X375749D01*
X367749Y318637D02*
X375749D01*
X297250Y262700D02*
Y272300D01*
X314750Y262700D02*
Y272300D01*
X297250Y262700D02*
X314750D01*
X297250Y272300D02*
X314750D01*
X217500Y154250D02*
X233500D01*
X217500Y162250D02*
X233500D01*
X217500Y154250D02*
Y162250D01*
X233500Y154250D02*
Y162250D01*
X308000Y172950D02*
Y182550D01*
X325500Y172950D02*
Y182550D01*
X308000Y172950D02*
X325500D01*
X308000Y182550D02*
X325500D01*
X273800Y159600D02*
Y206300D01*
Y159600D02*
X297200D01*
Y206300D01*
X147501Y24387D02*
X155501D01*
X147501Y8387D02*
X155501D01*
Y24387D01*
X147501Y8387D02*
Y24387D01*
X147750Y61500D02*
X155750D01*
X147750Y45500D02*
X155750D01*
Y61500D01*
X147750Y45500D02*
Y61500D01*
X194750Y192500D02*
X211250D01*
X194750Y202000D02*
X211250D01*
Y192500D02*
Y202000D01*
X194750Y192500D02*
Y202000D01*
X196250Y218250D02*
X207250D01*
X196250Y212750D02*
X207250D01*
X196250D02*
Y218250D01*
X207250Y212750D02*
Y218250D01*
X367750Y324000D02*
Y340000D01*
X359750Y324000D02*
Y340000D01*
X367750D01*
X359750Y324000D02*
X367750D01*
X268750Y124500D02*
Y140500D01*
X260750Y124500D02*
Y140500D01*
X268750D01*
X260750Y124500D02*
X268750D01*
X110000Y270750D02*
X126000D01*
X110000Y262750D02*
X126000D01*
X110000D02*
Y270750D01*
X126000Y262750D02*
Y270750D01*
X301250Y240750D02*
X317250D01*
X301250Y232750D02*
X317250D01*
X301250D02*
Y240750D01*
X317250Y232750D02*
Y240750D01*
X368501Y143113D02*
X376501D01*
X368501Y159113D02*
X376501D01*
Y143113D02*
Y159113D01*
X368501Y143113D02*
Y159113D01*
X328000Y313750D02*
Y321750D01*
X344000Y313750D02*
Y321750D01*
X328000Y313750D02*
X344000D01*
X328000Y321750D02*
X344000D01*
X247750Y158750D02*
Y175250D01*
X257250Y158750D02*
Y175250D01*
X247750D02*
X257250D01*
X247750Y158750D02*
X257250D01*
X297000Y297450D02*
Y307050D01*
X314500Y297450D02*
Y307050D01*
X297000Y297450D02*
X314500D01*
X297000Y307050D02*
X314500D01*
X185000Y166750D02*
X201500D01*
X185000Y157250D02*
X201500D01*
Y166750D01*
X185000Y157250D02*
Y166750D01*
X170200Y115000D02*
X179800D01*
X170200Y132500D02*
X179800D01*
Y115000D02*
Y132500D01*
X170200Y115000D02*
Y132500D01*
X153700Y115750D02*
X163300D01*
X153700Y133250D02*
X163300D01*
Y115750D02*
Y133250D01*
X153700Y115750D02*
Y133250D01*
D12*
X234250Y265000D02*
Y278000D01*
Y265000D02*
X263250D01*
Y278000D01*
X234250D02*
X263250D01*
D14*
X381500Y203250D02*
X391500D01*
Y188250D02*
Y203250D01*
X381500Y188250D02*
X391500D01*
X381500Y172250D02*
Y188250D01*
Y203250D01*
Y244250D01*
X351500D02*
X381500D01*
X351500Y172250D02*
Y244250D01*
Y172250D02*
X381500D01*
D73*
X305693Y288500D02*
D03*
D74*
X371746Y303706D02*
D03*
X151504Y9461D02*
D03*
X372504Y158040D02*
D03*
M02*
