G04*
G04 #@! TF.GenerationSoftware,Altium Limited,Altium Designer,22.9.1 (49)*
G04*
G04 Layer_Color=8388736*
%FSLAX44Y44*%
%MOMM*%
G71*
G04*
G04 #@! TF.SameCoordinates,C8543A43-BB23-4CB5-9DBE-1C6E9BA76EC2*
G04*
G04*
G04 #@! TF.FilePolarity,Negative*
G04*
G01*
G75*
%ADD31R,3.6532X1.7532*%
%ADD32R,0.8032X0.9032*%
%ADD33R,2.3622X2.9462*%
%ADD34R,1.6532X0.9032*%
%ADD35R,1.1524X1.0524*%
%ADD36R,1.2032X1.0032*%
%ADD37R,1.0524X1.1524*%
%ADD38R,3.5032X8.4032*%
%ADD39R,1.0032X1.2032*%
%ADD40R,1.4032X1.2032*%
%ADD41R,1.0032X1.0032*%
%ADD42R,1.0532X1.0532*%
%ADD43R,1.1032X1.2532*%
%ADD44R,0.7002X0.6502*%
%ADD45R,1.0532X1.0532*%
%ADD46C,1.2032*%
G04:AMPARAMS|DCode=47|XSize=1.9032mm|YSize=2.2032mm|CornerRadius=0.5266mm|HoleSize=0mm|Usage=FLASHONLY|Rotation=0.000|XOffset=0mm|YOffset=0mm|HoleType=Round|Shape=RoundedRectangle|*
%AMROUNDEDRECTD47*
21,1,1.9032,1.1500,0,0,0.0*
21,1,0.8500,2.2032,0,0,0.0*
1,1,1.0532,0.4250,-0.5750*
1,1,1.0532,-0.4250,-0.5750*
1,1,1.0532,-0.4250,0.5750*
1,1,1.0532,0.4250,0.5750*
%
%ADD47ROUNDEDRECTD47*%
%ADD48O,1.9032X2.2032*%
%ADD49C,1.6032*%
%ADD50R,1.6032X1.6032*%
%ADD51C,1.0532*%
%ADD52C,0.9652*%
%ADD53C,0.8032*%
D31*
X358000Y101250D02*
D03*
X299000D02*
D03*
X90000Y331000D02*
D03*
X31000D02*
D03*
Y54750D02*
D03*
X90000D02*
D03*
X96750Y186750D02*
D03*
X155750D02*
D03*
D32*
X248750Y281500D02*
D03*
X258250Y261500D02*
D03*
X239250D02*
D03*
D33*
X347700Y288500D02*
D03*
X303500D02*
D03*
D34*
X178250Y357300D02*
D03*
Y344600D02*
D03*
Y331900D02*
D03*
Y319200D02*
D03*
X122250D02*
D03*
Y331900D02*
D03*
Y344600D02*
D03*
Y357300D02*
D03*
X199000Y319200D02*
D03*
Y331900D02*
D03*
Y344600D02*
D03*
Y357300D02*
D03*
X255000D02*
D03*
Y344600D02*
D03*
Y331900D02*
D03*
Y319200D02*
D03*
D35*
X246750Y131500D02*
D03*
Y118000D02*
D03*
D36*
X370500Y265750D02*
D03*
Y280750D02*
D03*
X279500Y290750D02*
D03*
Y275750D02*
D03*
D37*
X240750Y242250D02*
D03*
X254250D02*
D03*
D38*
X257500Y52000D02*
D03*
X210500D02*
D03*
D39*
X300750Y255500D02*
D03*
X315750D02*
D03*
D40*
X340500Y233250D02*
D03*
Y208250D02*
D03*
Y183250D02*
D03*
D41*
X151500Y24000D02*
D03*
Y9000D02*
D03*
D42*
X151750Y61250D02*
D03*
Y45750D02*
D03*
X363750Y339750D02*
D03*
Y324250D02*
D03*
X264750Y140250D02*
D03*
Y124750D02*
D03*
D43*
X210000Y197250D02*
D03*
X196000D02*
D03*
D44*
X197250Y215500D02*
D03*
X206250D02*
D03*
D45*
X110250Y266750D02*
D03*
X125750D02*
D03*
X301500Y236750D02*
D03*
X317000D02*
D03*
D46*
X14000Y362000D02*
D03*
X370000D02*
D03*
X371000Y15000D02*
D03*
X14000Y14000D02*
D03*
D47*
X293750Y347750D02*
D03*
X309000Y38000D02*
D03*
X53000Y119000D02*
D03*
Y183750D02*
D03*
Y249500D02*
D03*
D48*
X318750Y347750D02*
D03*
X334000Y38000D02*
D03*
X28000Y119000D02*
D03*
Y183750D02*
D03*
Y249500D02*
D03*
D49*
X285500Y195650D02*
D03*
D50*
Y170250D02*
D03*
D51*
X366500Y223250D02*
D03*
Y193250D02*
D03*
D52*
X334000Y100800D02*
D03*
X207000Y253200D02*
D03*
X181600Y304000D02*
D03*
X156200Y253200D02*
D03*
X181600Y202400D02*
D03*
X156200Y151600D02*
D03*
X181600Y100800D02*
D03*
X141000Y116000D02*
D03*
X219000Y105250D02*
D03*
D53*
X229750Y288750D02*
D03*
X243092Y143380D02*
D03*
X238750Y363500D02*
D03*
X133750Y303250D02*
D03*
X251500Y188840D02*
D03*
X233750Y171000D02*
D03*
X297005Y140750D02*
D03*
M02*
