G04*
G04 #@! TF.GenerationSoftware,Altium Limited,Altium Designer,22.9.1 (49)*
G04*
G04 Layer_Color=32896*
%FSLAX44Y44*%
%MOMM*%
G71*
G04*
G04 #@! TF.SameCoordinates,C8543A43-BB23-4CB5-9DBE-1C6E9BA76EC2*
G04*
G04*
G04 #@! TF.FilePolarity,Positive*
G04*
G01*
G75*
%ADD11C,0.2500*%
%ADD12C,0.2000*%
%ADD13C,0.2540*%
%ADD15C,0.1500*%
%ADD16C,0.1250*%
G36*
X184658Y51412D02*
X184333D01*
Y51737D01*
X184658D01*
Y51412D01*
D02*
G37*
G36*
X183684Y51737D02*
Y51412D01*
X183360D01*
Y52061D01*
X183684D01*
Y51737D01*
D02*
G37*
G36*
X182710Y51088D02*
X183035D01*
Y51412D01*
X183360D01*
Y51088D01*
X183684D01*
Y50763D01*
Y50439D01*
X183360D01*
Y50763D01*
X182710D01*
Y51088D01*
X181737D01*
Y50114D01*
X182061D01*
Y50439D01*
X182710D01*
Y49790D01*
X182386D01*
Y49140D01*
X182710D01*
Y49790D01*
X183684D01*
Y50114D01*
X184009D01*
Y49790D01*
X184333D01*
Y49465D01*
X184658D01*
Y49140D01*
X184982D01*
Y49465D01*
X185307D01*
Y48816D01*
X185632D01*
Y49465D01*
X185956D01*
Y48167D01*
X186605D01*
Y48491D01*
X186281D01*
Y49140D01*
X186605D01*
Y48816D01*
X186930D01*
Y49465D01*
X187254D01*
Y48491D01*
X187579D01*
Y48816D01*
X188228D01*
Y48491D01*
X188553D01*
Y48167D01*
D01*
D01*
X188877D01*
Y48491D01*
X189202D01*
Y47517D01*
X189526D01*
Y47193D01*
D01*
D01*
X190175D01*
Y46868D01*
D01*
D01*
X190500D01*
Y46219D01*
X190175D01*
Y45895D01*
D01*
D01*
X190825D01*
Y45570D01*
X190500D01*
Y44597D01*
X190825D01*
Y43947D01*
X191149D01*
Y44921D01*
X190825D01*
Y45246D01*
X191149D01*
Y45570D01*
X191474D01*
Y44921D01*
X191798D01*
Y44597D01*
X192123D01*
Y44921D01*
X191798D01*
Y45246D01*
X192123D01*
Y44921D01*
X192447D01*
Y45246D01*
X192772D01*
Y44597D01*
X192447D01*
Y44272D01*
X192123D01*
Y43947D01*
X192772D01*
Y44272D01*
X193421D01*
Y43947D01*
X193097D01*
Y43623D01*
X193421D01*
Y43298D01*
X194070D01*
Y42974D01*
X193746D01*
Y42649D01*
X194395D01*
Y42325D01*
X193746D01*
Y42649D01*
X193421D01*
Y42325D01*
X193746D01*
Y42000D01*
X194395D01*
Y41675D01*
X194070D01*
Y41351D01*
X194395D01*
Y41026D01*
X194070D01*
Y40702D01*
X193421D01*
Y38754D01*
X194070D01*
Y38430D01*
X194395D01*
Y38754D01*
X194070D01*
Y39079D01*
X193746D01*
Y40377D01*
X194719D01*
Y40053D01*
X194395D01*
Y39728D01*
X194719D01*
Y39404D01*
X194395D01*
Y39079D01*
X194719D01*
Y38754D01*
X195368D01*
Y38105D01*
X194395D01*
Y37781D01*
X195693D01*
Y37456D01*
X195368D01*
Y36807D01*
X196017D01*
Y37781D01*
X195693D01*
Y39728D01*
X196667D01*
Y39404D01*
X196017D01*
Y39079D01*
X196991D01*
Y38754D01*
X196667D01*
Y38105D01*
X196991D01*
Y38430D01*
X197316D01*
Y37456D01*
X196667D01*
Y36807D01*
X197316D01*
Y35833D01*
X196667D01*
Y35509D01*
X197316D01*
Y35184D01*
X196991D01*
Y34860D01*
X196667D01*
Y35184D01*
X196017D01*
Y34860D01*
X196342D01*
Y34535D01*
X196991D01*
Y34211D01*
X196342D01*
Y33886D01*
X195368D01*
Y33561D01*
X195044D01*
Y34211D01*
X194070D01*
Y34535D01*
X193746D01*
Y34860D01*
X193421D01*
Y34211D01*
X194070D01*
Y33886D01*
X194719D01*
Y33561D01*
X194395D01*
Y33237D01*
X194719D01*
Y32912D01*
X195368D01*
Y33237D01*
X195693D01*
Y32912D01*
X196017D01*
Y32588D01*
X196342D01*
Y32263D01*
X196667D01*
Y31939D01*
X195368D01*
Y31614D01*
X196017D01*
Y31290D01*
Y30965D01*
X195368D01*
Y31290D01*
X195044D01*
Y32263D01*
X194719D01*
Y32912D01*
X194395D01*
Y32263D01*
X193746D01*
Y32588D01*
X193421D01*
Y32263D01*
X193746D01*
Y31939D01*
X194395D01*
Y31290D01*
X195044D01*
Y30965D01*
X195368D01*
Y30640D01*
X196017D01*
Y29991D01*
X194719D01*
Y30316D01*
X193746D01*
Y30640D01*
X193421D01*
Y29991D01*
X194070D01*
Y29667D01*
X194719D01*
Y29018D01*
X195044D01*
Y28368D01*
X194395D01*
Y28693D01*
X194070D01*
Y28044D01*
X194395D01*
Y27719D01*
X194070D01*
Y27395D01*
X193746D01*
Y27070D01*
X193421D01*
Y27395D01*
X192772D01*
Y28044D01*
X193421D01*
Y28368D01*
X192772D01*
Y28693D01*
X193421D01*
Y29018D01*
X193746D01*
Y29342D01*
X193421D01*
Y29667D01*
X192772D01*
Y29991D01*
X192447D01*
Y29667D01*
X192772D01*
Y29342D01*
X193097D01*
Y29018D01*
X192447D01*
Y29342D01*
X192123D01*
Y29018D01*
X192447D01*
Y28368D01*
X192123D01*
Y28693D01*
X191798D01*
Y28368D01*
X192123D01*
Y27719D01*
X192447D01*
Y27395D01*
X192123D01*
Y26096D01*
X192447D01*
Y25447D01*
X191798D01*
Y25772D01*
X191149D01*
Y26421D01*
X190500D01*
Y26746D01*
X190175D01*
Y27070D01*
X189851D01*
Y26746D01*
X190175D01*
Y26096D01*
X189526D01*
Y26421D01*
X189202D01*
Y26096D01*
X189526D01*
Y25447D01*
X188877D01*
Y25772D01*
X188553D01*
Y25447D01*
X188877D01*
Y24798D01*
X189202D01*
Y24474D01*
X189526D01*
Y23825D01*
X189851D01*
Y23500D01*
X189202D01*
Y23175D01*
X188877D01*
Y23500D01*
X188553D01*
Y24474D01*
X188228D01*
Y24798D01*
X187903D01*
Y25772D01*
X187579D01*
Y24798D01*
X187903D01*
Y24474D01*
X187579D01*
Y24798D01*
X187254D01*
Y25447D01*
X186930D01*
Y24474D01*
X186281D01*
Y24149D01*
X186605D01*
Y23825D01*
X186930D01*
Y24149D01*
X188228D01*
Y22851D01*
X187903D01*
Y23175D01*
X187579D01*
Y23825D01*
X187254D01*
Y22851D01*
X186605D01*
Y23175D01*
X186281D01*
Y23500D01*
X185632D01*
Y24149D01*
X185307D01*
Y25123D01*
X184982D01*
Y24798D01*
X184658D01*
Y24474D01*
X184982D01*
Y23825D01*
X184009D01*
Y24474D01*
X183684D01*
Y23825D01*
X184009D01*
Y23175D01*
X184658D01*
Y22851D01*
X184982D01*
Y22526D01*
X184658D01*
Y22202D01*
X184982D01*
Y21553D01*
X184009D01*
Y22202D01*
X183684D01*
Y22526D01*
X183360D01*
Y21553D01*
X182710D01*
Y21877D01*
X182386D01*
Y22202D01*
X182061D01*
Y22526D01*
X182386D01*
Y22202D01*
X182710D01*
Y22526D01*
X182386D01*
Y22851D01*
X183035D01*
Y23175D01*
X182710D01*
Y23500D01*
X182386D01*
Y24149D01*
X182061D01*
Y22851D01*
X181737D01*
Y23500D01*
X181412D01*
Y23175D01*
X181088D01*
Y22526D01*
X181737D01*
Y22202D01*
X182061D01*
Y21877D01*
X182386D01*
Y21553D01*
X182061D01*
Y21877D01*
X181737D01*
Y21553D01*
X180114D01*
Y22526D01*
X179790D01*
Y21877D01*
X179465D01*
Y22202D01*
X179140D01*
Y22526D01*
X179465D01*
Y22851D01*
X179140D01*
Y23175D01*
X179790D01*
Y22851D01*
X180114D01*
Y23175D01*
X180763D01*
Y24474D01*
X180439D01*
Y23825D01*
X180114D01*
Y23500D01*
X179790D01*
Y23825D01*
X179465D01*
Y24798D01*
X180439D01*
Y25123D01*
X179140D01*
Y24474D01*
X178816D01*
Y24149D01*
X178491D01*
Y24474D01*
X178167D01*
Y23500D01*
X178491D01*
Y22526D01*
X177842D01*
Y23500D01*
X177518D01*
Y25123D01*
X177193D01*
Y24474D01*
X176868D01*
Y24149D01*
X176544D01*
Y25123D01*
X176219D01*
Y24149D01*
X176544D01*
Y23825D01*
X177193D01*
Y23500D01*
X177518D01*
Y23175D01*
X177193D01*
Y22526D01*
X176868D01*
Y22202D01*
X176544D01*
Y22526D01*
X176219D01*
Y23500D01*
X175895D01*
Y23175D01*
X175570D01*
Y22851D01*
X175246D01*
Y23175D01*
X174921D01*
Y23825D01*
X174597D01*
Y23500D01*
X173947D01*
Y23825D01*
X173623D01*
Y24474D01*
X173947D01*
Y24798D01*
X173298D01*
Y24474D01*
X172649D01*
Y24798D01*
X172974D01*
Y25123D01*
X173298D01*
Y25447D01*
X172649D01*
Y25123D01*
X172325D01*
Y25447D01*
Y25772D01*
X172649D01*
Y26096D01*
X172974D01*
Y25772D01*
X173298D01*
Y25447D01*
X173623D01*
Y25772D01*
X173298D01*
Y26096D01*
X173623D01*
Y25772D01*
X174272D01*
Y26421D01*
D01*
D01*
X173623D01*
Y26746D01*
X173298D01*
Y27070D01*
X173623D01*
Y27719D01*
D01*
D01*
X173298D01*
Y27395D01*
X172649D01*
Y28044D01*
X172325D01*
Y27719D01*
X171675D01*
Y28693D01*
X171351D01*
Y28368D01*
X171026D01*
Y29018D01*
X170702D01*
Y29991D01*
X171026D01*
Y30316D01*
X170377D01*
Y29991D01*
X170053D01*
Y29667D01*
X169728D01*
Y29342D01*
X170053D01*
Y29018D01*
X170702D01*
Y28368D01*
X171026D01*
Y28044D01*
Y27719D01*
X171351D01*
Y27395D01*
X171026D01*
Y27719D01*
X170377D01*
Y27395D01*
X169728D01*
Y27719D01*
X169403D01*
Y28044D01*
X169079D01*
Y28693D01*
X168754D01*
Y29342D01*
X168430D01*
Y29991D01*
X168754D01*
Y30316D01*
X168430D01*
Y30640D01*
X168105D01*
Y30316D01*
X167781D01*
Y31290D01*
X168754D01*
Y31614D01*
X169403D01*
Y31290D01*
X169079D01*
Y30640D01*
X169403D01*
Y29991D01*
X169728D01*
Y30640D01*
X170377D01*
Y30965D01*
X169728D01*
Y31290D01*
X170053D01*
Y31614D01*
X169403D01*
Y32263D01*
X170377D01*
Y32588D01*
X169079D01*
Y32912D01*
D01*
D01*
X168754D01*
Y33237D01*
X167132D01*
Y33886D01*
X167456D01*
Y34211D01*
X168754D01*
Y33561D01*
X169079D01*
Y34211D01*
X169403D01*
Y34535D01*
X169079D01*
Y34860D01*
X168430D01*
Y35184D01*
X168754D01*
Y35509D01*
X169403D01*
Y35833D01*
X168105D01*
Y36158D01*
X168754D01*
Y36807D01*
X168430D01*
Y36483D01*
X168105D01*
Y36807D01*
X167781D01*
Y36483D01*
X166483D01*
Y36807D01*
X167456D01*
Y37132D01*
X166483D01*
Y37456D01*
X166807D01*
Y37781D01*
X166483D01*
Y38430D01*
X166807D01*
Y38754D01*
X167132D01*
Y38430D01*
X168105D01*
Y37456D01*
X169079D01*
Y37781D01*
X168430D01*
Y38105D01*
X169079D01*
Y38430D01*
X168754D01*
Y38754D01*
X169079D01*
Y39079D01*
X168754D01*
Y39404D01*
X168430D01*
Y40053D01*
X169728D01*
Y40377D01*
X169403D01*
Y40702D01*
X169079D01*
Y41351D01*
X170053D01*
Y41675D01*
X169403D01*
Y42000D01*
X169728D01*
Y42974D01*
X170702D01*
Y42649D01*
X171026D01*
Y42974D01*
X170702D01*
Y43298D01*
X170053D01*
Y43623D01*
X169403D01*
Y43947D01*
X168430D01*
Y44597D01*
X169079D01*
Y44921D01*
X169728D01*
Y44272D01*
X170053D01*
Y43947D01*
X171026D01*
Y43623D01*
X171351D01*
Y43947D01*
X171026D01*
Y44272D01*
X170702D01*
Y44597D01*
X171026D01*
Y44272D01*
X171675D01*
Y43947D01*
X172000D01*
Y44272D01*
X171675D01*
Y44597D01*
X171351D01*
Y45246D01*
X171675D01*
Y44921D01*
X172000D01*
Y45246D01*
X172325D01*
Y44921D01*
X172649D01*
Y44272D01*
X172974D01*
Y44597D01*
X173298D01*
Y44921D01*
X172974D01*
Y45246D01*
X172649D01*
Y45895D01*
X172974D01*
Y45570D01*
X173298D01*
Y45246D01*
X174272D01*
Y45570D01*
X174921D01*
Y45895D01*
X175246D01*
Y46219D01*
X174597D01*
Y46544D01*
X174272D01*
Y46868D01*
X173947D01*
Y46544D01*
X174272D01*
Y46219D01*
X174597D01*
Y45895D01*
X173623D01*
Y45570D01*
X173298D01*
Y45895D01*
X172974D01*
Y46219D01*
X172649D01*
Y46544D01*
X172325D01*
Y46868D01*
X172000D01*
Y46544D01*
X171675D01*
Y46868D01*
X171351D01*
Y47193D01*
Y47517D01*
X171675D01*
Y47193D01*
X172325D01*
Y46868D01*
X173623D01*
Y47517D01*
X174272D01*
Y47193D01*
X174597D01*
Y47517D01*
X174272D01*
Y48167D01*
X174921D01*
Y47842D01*
X175246D01*
Y47517D01*
X175570D01*
Y47842D01*
X175246D01*
Y48167D01*
X174921D01*
Y48816D01*
X174272D01*
Y48491D01*
X173947D01*
Y47842D01*
X173298D01*
Y47517D01*
X172974D01*
Y47842D01*
X172649D01*
Y48491D01*
X172325D01*
Y48816D01*
X172974D01*
Y48491D01*
X173298D01*
Y48167D01*
X173623D01*
Y48491D01*
X173298D01*
Y48816D01*
X172974D01*
Y49465D01*
X173947D01*
Y49140D01*
X174272D01*
Y49465D01*
X174597D01*
Y49790D01*
X173947D01*
Y50114D01*
X174921D01*
Y50439D01*
X175246D01*
Y49790D01*
X175570D01*
Y50763D01*
X176219D01*
Y48816D01*
X176544D01*
Y48167D01*
X176868D01*
Y49140D01*
X177193D01*
Y48167D01*
X177518D01*
Y47842D01*
X178167D01*
Y48167D01*
X177518D01*
Y49790D01*
X178167D01*
Y49465D01*
X178491D01*
Y49140D01*
X178816D01*
Y49790D01*
X179140D01*
Y49465D01*
X179465D01*
Y48491D01*
X178816D01*
Y48167D01*
X180439D01*
Y48816D01*
X180114D01*
Y48491D01*
X179790D01*
Y49465D01*
X179465D01*
Y50114D01*
X179790D01*
Y49790D01*
X180114D01*
Y49140D01*
X180439D01*
Y49790D01*
X180114D01*
Y50114D01*
X180439D01*
Y50439D01*
X180763D01*
Y50114D01*
X181088D01*
Y49465D01*
X181412D01*
Y50763D01*
X180114D01*
Y50439D01*
X179790D01*
Y51412D01*
X179465D01*
Y51737D01*
X179790D01*
Y52061D01*
X180439D01*
Y51412D01*
X180763D01*
Y51088D01*
X181088D01*
Y52061D01*
X181737D01*
Y51412D01*
X182386D01*
Y52061D01*
X182710D01*
Y51088D01*
D02*
G37*
G36*
X177518D02*
X177193D01*
Y51412D01*
X177518D01*
Y51088D01*
D02*
G37*
G36*
X185307Y51412D02*
X185632D01*
Y51088D01*
X185307D01*
Y50439D01*
X185632D01*
Y50763D01*
X185956D01*
Y51088D01*
X186281D01*
Y51412D01*
X186605D01*
Y51088D01*
X186930D01*
Y50439D01*
X187254D01*
Y50763D01*
X187579D01*
Y49790D01*
X187903D01*
Y50439D01*
X188228D01*
Y50114D01*
X188553D01*
Y50439D01*
X188228D01*
Y50763D01*
X188553D01*
Y50439D01*
X188877D01*
Y49790D01*
X188553D01*
Y49140D01*
X188228D01*
Y49465D01*
X187903D01*
Y49140D01*
X187579D01*
Y49465D01*
X187254D01*
Y49790D01*
X186930D01*
Y50439D01*
X186605D01*
Y49790D01*
X185956D01*
Y50114D01*
X185307D01*
Y50439D01*
X184982D01*
Y49790D01*
X184658D01*
Y50763D01*
X184333D01*
Y50439D01*
X184009D01*
Y51412D01*
X184333D01*
Y51088D01*
X184658D01*
Y50763D01*
X184982D01*
Y51088D01*
Y51737D01*
X185307D01*
Y51412D01*
D02*
G37*
G36*
X179140Y51088D02*
X179465D01*
Y50439D01*
X179140D01*
Y51088D01*
X178816D01*
Y51412D01*
X179140D01*
Y51088D01*
D02*
G37*
G36*
X178167D02*
X178491D01*
Y50763D01*
X178816D01*
Y50439D01*
X179140D01*
Y50114D01*
X178816D01*
Y50439D01*
X178491D01*
Y50114D01*
X177842D01*
Y51412D01*
X178167D01*
Y51088D01*
D02*
G37*
G36*
X176868Y50439D02*
X177193D01*
Y49790D01*
X176544D01*
Y51088D01*
X176868D01*
Y50439D01*
D02*
G37*
G36*
X192447Y47842D02*
X192123D01*
Y48167D01*
X192447D01*
Y47842D01*
D02*
G37*
G36*
X172325D02*
X172649D01*
Y47517D01*
X172974D01*
Y47193D01*
X172649D01*
Y47517D01*
X172325D01*
Y47842D01*
X172000D01*
Y48167D01*
X172325D01*
Y47842D01*
D02*
G37*
G36*
X189851Y49790D02*
X190175D01*
Y49140D01*
X189851D01*
Y48491D01*
X190175D01*
Y48816D01*
X190500D01*
Y49140D01*
X191149D01*
Y48816D01*
X190825D01*
Y48167D01*
X191149D01*
Y48491D01*
X191798D01*
Y48167D01*
X191474D01*
Y47842D01*
X191149D01*
Y47517D01*
X191474D01*
Y46868D01*
X191149D01*
Y47517D01*
X190825D01*
Y47842D01*
X190500D01*
Y47517D01*
X190175D01*
Y48167D01*
X189851D01*
Y48491D01*
X189526D01*
Y48816D01*
X189202D01*
Y49140D01*
X188877D01*
Y49465D01*
X189202D01*
Y49790D01*
Y50114D01*
X189851D01*
Y49790D01*
D02*
G37*
G36*
X191149Y46544D02*
X190825D01*
Y46868D01*
X191149D01*
Y46544D01*
D02*
G37*
G36*
X192123Y45895D02*
X191798D01*
Y46219D01*
X192123D01*
Y45895D01*
D02*
G37*
G36*
X191149D02*
X190825D01*
Y46219D01*
X191149D01*
Y45895D01*
D02*
G37*
G36*
X171351D02*
X171026D01*
Y46219D01*
X171351D01*
Y45895D01*
D02*
G37*
G36*
X172000Y45570D02*
X171675D01*
Y45895D01*
X172000D01*
Y45570D01*
D02*
G37*
G36*
X170377Y46219D02*
X170702D01*
Y45895D01*
X171026D01*
Y45570D01*
X170702D01*
Y45895D01*
X170377D01*
Y46219D01*
X170053D01*
Y46544D01*
X170377D01*
Y46219D01*
D02*
G37*
G36*
X170053Y45570D02*
X170377D01*
Y45246D01*
X171026D01*
Y44921D01*
X170377D01*
Y44597D01*
X170053D01*
Y44921D01*
X169728D01*
Y45570D01*
X169403D01*
Y45895D01*
X170053D01*
Y45570D01*
D02*
G37*
G36*
X192447Y46219D02*
X192772D01*
Y45895D01*
X193421D01*
Y46219D01*
X194070D01*
Y45895D01*
X193746D01*
Y45570D01*
X193421D01*
Y45246D01*
X194070D01*
Y45570D01*
X194719D01*
Y44921D01*
X194395D01*
Y44597D01*
X194070D01*
Y44272D01*
X193746D01*
Y44597D01*
X193097D01*
Y45246D01*
X192772D01*
Y45895D01*
X192447D01*
Y46219D01*
X192123D01*
Y46544D01*
X191798D01*
Y47193D01*
X192447D01*
Y46219D01*
D02*
G37*
G36*
X195368Y43623D02*
X194395D01*
Y44272D01*
X194719Y43947D01*
X195044D01*
Y44272D01*
X194719D01*
Y44597D01*
X195368D01*
Y43623D01*
D02*
G37*
G36*
X169403Y42325D02*
X168754D01*
Y42649D01*
X168430D01*
Y42974D01*
X167781D01*
Y43298D01*
X168105D01*
Y43623D01*
X169403D01*
Y42325D01*
D02*
G37*
G36*
X168430D02*
X168754D01*
Y42000D01*
X167781D01*
Y42649D01*
X168430D01*
Y42325D01*
D02*
G37*
G36*
X196667Y41026D02*
X196342D01*
Y41351D01*
X196667D01*
Y41026D01*
D02*
G37*
G36*
X196017Y42649D02*
X195368D01*
Y42325D01*
X195044D01*
Y42000D01*
X195693D01*
Y42325D01*
X196017D01*
Y42000D01*
X196342D01*
Y41675D01*
X195693D01*
Y41026D01*
X195044D01*
Y42000D01*
X194719D01*
Y42649D01*
X194395D01*
Y43298D01*
X196017D01*
Y42649D01*
D02*
G37*
G36*
X195044Y40377D02*
X194719D01*
Y40702D01*
Y41026D01*
X195044D01*
Y40377D01*
D02*
G37*
G36*
X168754Y40702D02*
X168430D01*
Y40377D01*
X168105D01*
Y40702D01*
X167781D01*
Y41026D01*
X167456D01*
Y41675D01*
X168754D01*
Y40702D01*
D02*
G37*
G36*
X196017Y40053D02*
X195368D01*
Y40377D01*
X196017D01*
Y40053D01*
D02*
G37*
G36*
X195368Y39728D02*
X195044D01*
Y40053D01*
X195368D01*
Y39728D01*
D02*
G37*
G36*
X168105Y38754D02*
X168430D01*
Y38430D01*
X168105D01*
Y38754D01*
X167456D01*
Y39079D01*
X166807D01*
Y39404D01*
X168105D01*
Y38754D01*
D02*
G37*
G36*
X167781Y35833D02*
X168105D01*
Y34860D01*
Y34535D01*
X166807D01*
Y34860D01*
X167781D01*
Y35184D01*
X167132D01*
Y35509D01*
X166807D01*
Y35184D01*
X166483D01*
Y35833D01*
X166807D01*
Y36158D01*
X167781D01*
Y35833D01*
D02*
G37*
G36*
X196991Y33237D02*
X196667D01*
Y33561D01*
Y33886D01*
X196991D01*
Y33237D01*
D02*
G37*
G36*
X168754Y32263D02*
X169079D01*
Y31939D01*
X168105D01*
Y32263D01*
X168430D01*
Y32588D01*
X168754D01*
Y32263D01*
D02*
G37*
G36*
X167456D02*
X167781D01*
Y31939D01*
X167132D01*
Y32263D01*
Y32588D01*
X167456D01*
Y32263D01*
D02*
G37*
G36*
X195368Y29018D02*
X195044D01*
Y29342D01*
X195368D01*
Y29018D01*
D02*
G37*
G36*
X171026Y27070D02*
X170702D01*
Y27395D01*
X171026D01*
Y27070D01*
D02*
G37*
G36*
X172974Y26421D02*
X172649D01*
Y27070D01*
X172974D01*
Y26421D01*
D02*
G37*
G36*
X172325Y26746D02*
X172000D01*
Y26421D01*
X171675D01*
Y26096D01*
X171351D01*
Y27070D01*
X172325D01*
Y26746D01*
D02*
G37*
G36*
X191149Y25123D02*
X191474D01*
Y24798D01*
X191149D01*
Y25123D01*
X190825D01*
Y25447D01*
X190175D01*
Y25123D01*
X190500D01*
Y24474D01*
X190825D01*
Y24149D01*
X190500D01*
Y23825D01*
X190175D01*
Y24149D01*
X189851D01*
Y24474D01*
X189526D01*
Y25123D01*
X189851D01*
Y25772D01*
X191149D01*
Y25123D01*
D02*
G37*
G36*
X179140Y23500D02*
X178816D01*
Y23825D01*
X179140D01*
Y23500D01*
D02*
G37*
G36*
X185632Y22526D02*
X185307D01*
Y22851D01*
X184982D01*
Y23175D01*
Y23500D01*
X185632D01*
Y22526D01*
D02*
G37*
G36*
X187254Y22202D02*
X186281D01*
Y22526D01*
X187254D01*
Y22202D01*
D02*
G37*
G36*
X178816Y21877D02*
X178491D01*
Y22202D01*
X178816D01*
Y21877D01*
D02*
G37*
%LPC*%
G36*
X182061Y49790D02*
X181737D01*
Y49465D01*
X182061D01*
Y49790D01*
D02*
G37*
G36*
X184009Y49465D02*
X183684D01*
Y49140D01*
X184009D01*
Y49465D01*
D02*
G37*
G36*
X183360D02*
X183035D01*
Y49140D01*
X183360D01*
Y49465D01*
D02*
G37*
G36*
X173623Y49140D02*
X173298D01*
Y48816D01*
X173623D01*
Y49140D01*
D02*
G37*
G36*
X184009Y48816D02*
X183360D01*
Y48491D01*
X184009D01*
Y48167D01*
X184333D01*
Y48491D01*
D01*
D01*
X184009D01*
Y48816D01*
D02*
G37*
G36*
X183360Y48491D02*
X183035D01*
Y48167D01*
X183360D01*
Y48491D01*
D02*
G37*
G36*
X182386Y48816D02*
X182061D01*
Y48167D01*
X182710D01*
Y48491D01*
X182386D01*
Y48816D01*
D02*
G37*
G36*
X181737D02*
X181088D01*
Y48491D01*
X180763D01*
Y48167D01*
X181737D01*
Y48816D01*
D02*
G37*
G36*
X175895Y49465D02*
X175246D01*
Y49140D01*
X174921D01*
Y48816D01*
X175246D01*
Y48491D01*
X175570D01*
Y48167D01*
X175895D01*
Y48491D01*
X175570D01*
Y49140D01*
X175895D01*
Y49465D01*
D02*
G37*
G36*
X177518Y47842D02*
X177193D01*
Y47517D01*
X177518D01*
Y47842D01*
D02*
G37*
G36*
X184658Y49140D02*
X184333D01*
Y48491D01*
D01*
D01*
X184658D01*
Y48167D01*
X185307D01*
Y47842D01*
X185632D01*
Y47517D01*
X186281D01*
Y47842D01*
X185956D01*
Y48167D01*
X185632D01*
Y48491D01*
X185307D01*
Y48816D01*
X184982D01*
Y48491D01*
X184658D01*
Y49140D01*
D02*
G37*
G36*
X188553Y48167D02*
X187903D01*
Y47842D01*
X188228D01*
Y47517D01*
X188553D01*
Y47193D01*
X188877D01*
Y47517D01*
X188553D01*
Y48167D01*
D01*
D01*
D02*
G37*
G36*
X189526Y47193D02*
X189202D01*
Y46868D01*
X189526D01*
Y47193D01*
D01*
D01*
D02*
G37*
G36*
X177193Y47517D02*
X176219D01*
Y46868D01*
X176544D01*
Y47193D01*
X177193D01*
Y47517D01*
D02*
G37*
G36*
X190175Y46868D02*
X189851D01*
Y46544D01*
X190175D01*
Y46868D01*
D01*
D01*
D02*
G37*
G36*
X187254Y47193D02*
X186605D01*
Y46544D01*
X186930D01*
Y46868D01*
X187254D01*
Y46544D01*
X187579D01*
Y46868D01*
X187254D01*
Y47193D01*
D02*
G37*
G36*
X176219Y46868D02*
X175895D01*
Y46544D01*
X176219D01*
Y46868D01*
D02*
G37*
G36*
X175570Y46544D02*
X175246D01*
Y46219D01*
X175570D01*
Y46544D01*
D02*
G37*
G36*
X188877Y46868D02*
X187903D01*
Y46544D01*
X188228D01*
Y46219D01*
X188553D01*
Y45895D01*
X188877D01*
Y46868D01*
D02*
G37*
G36*
X189526Y46544D02*
X189202D01*
Y45895D01*
X189526D01*
Y45570D01*
X190175D01*
Y45895D01*
D01*
D01*
X189526D01*
Y46544D01*
D02*
G37*
G36*
X193097Y43623D02*
X192772D01*
Y43298D01*
X193097D01*
Y42974D01*
X193421D01*
Y43298D01*
X193097D01*
Y43623D01*
D02*
G37*
G36*
X172325Y44597D02*
X172000D01*
Y44272D01*
X172325D01*
Y43623D01*
X172000D01*
Y43298D01*
X171675D01*
Y42649D01*
X172000D01*
Y42974D01*
X172325D01*
Y43298D01*
X172649D01*
Y44272D01*
X172325D01*
Y44597D01*
D02*
G37*
G36*
X191474Y43298D02*
X190825D01*
Y42974D01*
X191149D01*
X191474Y42649D01*
Y42325D01*
X192123D01*
Y42649D01*
X191798D01*
Y42974D01*
X191474D01*
Y43298D01*
D02*
G37*
G36*
X171675Y42649D02*
X171351D01*
Y42325D01*
X171675D01*
Y42000D01*
X172000D01*
Y42325D01*
X171675D01*
Y42649D01*
D02*
G37*
G36*
X170377Y42325D02*
X170053D01*
Y42000D01*
X170377D01*
Y42325D01*
D02*
G37*
G36*
X192772Y42000D02*
X192447D01*
Y41675D01*
Y41351D01*
X193097D01*
Y41675D01*
X192772D01*
Y42000D01*
D02*
G37*
G36*
X171675D02*
X171026D01*
Y41026D01*
X170702D01*
Y40702D01*
X171351D01*
Y41675D01*
X171675D01*
Y42000D01*
D02*
G37*
G36*
X170702Y40702D02*
X170377D01*
Y40053D01*
X170702D01*
Y40702D01*
D02*
G37*
G36*
X170377Y40053D02*
X170053D01*
Y39728D01*
X170377D01*
Y40053D01*
D02*
G37*
G36*
Y39404D02*
X169728D01*
Y39079D01*
X170053D01*
Y38754D01*
X170377D01*
Y39079D01*
Y39404D01*
D02*
G37*
G36*
X196342Y38754D02*
X196017D01*
Y38430D01*
X196342D01*
Y38754D01*
D02*
G37*
G36*
X170377Y38430D02*
X169728D01*
Y38105D01*
X170053D01*
Y37781D01*
X170377D01*
Y38430D01*
D02*
G37*
G36*
X193421Y38754D02*
X193097D01*
Y38430D01*
X193421D01*
Y37781D01*
X193746D01*
Y38105D01*
X194070D01*
Y38430D01*
X193421D01*
Y38754D01*
D02*
G37*
G36*
X193097Y37781D02*
X192772D01*
Y37456D01*
X193097D01*
Y37781D01*
D02*
G37*
G36*
X168105Y37456D02*
X167781D01*
Y37132D01*
X168105D01*
Y37456D01*
D02*
G37*
G36*
X195044Y37132D02*
X194719D01*
Y36807D01*
X195044D01*
Y37132D01*
D02*
G37*
G36*
X193421D02*
X193097D01*
Y36807D01*
X193421D01*
Y36483D01*
X193746D01*
Y36807D01*
X193421D01*
Y37132D01*
D02*
G37*
G36*
X170377Y37456D02*
X169728D01*
Y37132D01*
X170053D01*
Y36483D01*
X170377D01*
Y37132D01*
Y37456D01*
D02*
G37*
G36*
X196017Y36483D02*
X195693D01*
Y36158D01*
X194719D01*
Y36483D01*
X194395D01*
Y36158D01*
X194719D01*
Y35833D01*
X195368D01*
Y35509D01*
X194719D01*
Y35184D01*
X195044D01*
Y34860D01*
X195368D01*
Y35184D01*
X195693D01*
Y35509D01*
X196017D01*
Y36483D01*
D02*
G37*
G36*
X193746Y35833D02*
X193421D01*
Y35184D01*
X193746D01*
Y34860D01*
X194070D01*
Y35509D01*
X193746D01*
Y35833D01*
D02*
G37*
G36*
X170702Y36158D02*
X170377D01*
Y34860D01*
X170702D01*
Y35509D01*
X171026D01*
Y35833D01*
X170702D01*
Y36158D01*
D02*
G37*
G36*
X195368Y34535D02*
X195044D01*
Y34211D01*
X195368D01*
Y34535D01*
D02*
G37*
G36*
X170377Y34860D02*
X169728D01*
Y34535D01*
X170053D01*
Y34211D01*
X170377D01*
Y33886D01*
D01*
D01*
X170702D01*
Y34211D01*
X170377D01*
Y34860D01*
D02*
G37*
G36*
X169403Y33237D02*
X169079D01*
Y32912D01*
D01*
D01*
X169403D01*
Y33237D01*
D02*
G37*
G36*
X194070Y32912D02*
X193746D01*
Y32588D01*
X194070D01*
Y32912D01*
D02*
G37*
G36*
X193746Y33561D02*
X193097D01*
Y33237D01*
Y32912D01*
X192772D01*
Y32588D01*
X193097D01*
X193421Y32912D01*
Y33237D01*
X193746D01*
Y33561D01*
D02*
G37*
G36*
X195693Y32588D02*
X195368D01*
Y32263D01*
X195693D01*
Y32588D01*
D02*
G37*
G36*
X193746Y31614D02*
X193421D01*
Y31290D01*
X193746D01*
Y30965D01*
X194070D01*
Y30640D01*
X194395D01*
Y31290D01*
X193746D01*
Y31614D01*
D02*
G37*
G36*
X169079Y30640D02*
X168754D01*
Y30316D01*
X169079D01*
Y30640D01*
D02*
G37*
G36*
X192123Y32263D02*
X191798D01*
Y30640D01*
X191474D01*
Y29991D01*
X191798D01*
Y30316D01*
X192123D01*
Y31290D01*
X192447D01*
Y31614D01*
X192123D01*
Y32263D01*
D02*
G37*
G36*
X191474Y29991D02*
X191149D01*
Y29667D01*
X191474D01*
Y29991D01*
D02*
G37*
G36*
X169079Y29667D02*
X168754D01*
Y29342D01*
X169079D01*
Y29667D01*
D02*
G37*
G36*
X171351Y29342D02*
X171026D01*
Y29018D01*
X171351D01*
Y29342D01*
D02*
G37*
G36*
X169728D02*
X169403D01*
Y29018D01*
X169728D01*
Y29342D01*
D02*
G37*
G36*
X172000Y29018D02*
X171675D01*
Y28693D01*
X172000D01*
Y29018D01*
D02*
G37*
G36*
X169403D02*
X169079D01*
Y28693D01*
X169403D01*
Y29018D01*
D02*
G37*
G36*
X170377Y33886D02*
X170053D01*
Y32912D01*
X170377D01*
Y32588D01*
X170702D01*
Y31939D01*
X171026D01*
Y31614D01*
X171351D01*
Y30965D01*
X171675D01*
Y30640D01*
X172000D01*
Y29991D01*
X172325D01*
Y29342D01*
X172649D01*
Y28693D01*
X172974D01*
Y28368D01*
X173298D01*
Y29018D01*
X172974D01*
Y29667D01*
X172649D01*
Y30316D01*
X172325D01*
Y30965D01*
X171675D01*
Y31614D01*
X171351D01*
Y32263D01*
X171026D01*
Y32588D01*
X170702D01*
Y32912D01*
X170377D01*
Y33886D01*
D01*
D01*
D02*
G37*
G36*
X191474Y29342D02*
X190825D01*
Y28368D01*
X191149D01*
Y29018D01*
X191474D01*
Y29342D01*
D02*
G37*
G36*
X172974Y28368D02*
X172649D01*
Y28044D01*
X172974D01*
Y28368D01*
D02*
G37*
G36*
X189202Y27719D02*
X188877D01*
Y27395D01*
X189202D01*
Y27719D01*
D02*
G37*
G36*
X188553D02*
X188228D01*
Y27395D01*
X188553D01*
Y27719D01*
D02*
G37*
G36*
X188228Y27395D02*
X187903D01*
Y27070D01*
X188228D01*
Y27395D01*
D02*
G37*
G36*
X190825Y28368D02*
X189851D01*
Y28044D01*
X189202D01*
Y27719D01*
X190175D01*
Y28044D01*
X190500D01*
Y27719D01*
X190825D01*
Y26746D01*
X191798D01*
Y27395D01*
X191474D01*
Y27719D01*
X190825D01*
Y28368D01*
D02*
G37*
G36*
X187903Y27070D02*
X187579D01*
Y26421D01*
X187903D01*
Y27070D01*
D02*
G37*
G36*
X174272Y28044D02*
X173623D01*
Y27719D01*
D01*
D01*
X174272D01*
Y27395D01*
X174597D01*
Y27070D01*
X175246D01*
Y26746D01*
X175570D01*
Y26421D01*
X175895D01*
Y27070D01*
X175570D01*
Y27395D01*
X174597D01*
Y27719D01*
X174272D01*
Y28044D01*
D02*
G37*
G36*
X174597Y26746D02*
X174272D01*
Y26421D01*
D01*
D01*
X174597D01*
Y26746D01*
D02*
G37*
G36*
X187254Y26421D02*
X186605D01*
Y26096D01*
X187254D01*
Y26421D01*
D02*
G37*
G36*
X175246Y26096D02*
X174921D01*
Y25447D01*
D01*
D01*
X175246D01*
Y26096D01*
D02*
G37*
G36*
X177193Y26421D02*
X176219D01*
Y26096D01*
X176868D01*
Y25772D01*
X177193D01*
Y25447D01*
X177518D01*
Y25772D01*
X177842D01*
Y25447D01*
X178167D01*
Y25123D01*
X178816D01*
Y25447D01*
X178491D01*
Y25772D01*
X178167D01*
Y26096D01*
X177193D01*
Y26421D01*
D02*
G37*
G36*
X175895Y25447D02*
X175570D01*
Y25123D01*
D01*
D01*
X175895D01*
Y25447D01*
D02*
G37*
G36*
X186605Y25123D02*
X186281D01*
Y24798D01*
X186605D01*
Y25123D01*
D02*
G37*
G36*
Y25772D02*
X185632D01*
Y25447D01*
X185307D01*
Y25123D01*
X185632D01*
Y24798D01*
X185956D01*
Y25447D01*
X186605D01*
Y25772D01*
D02*
G37*
G36*
X184333Y25447D02*
X183035D01*
Y25123D01*
X182710D01*
Y24798D01*
X183035D01*
X183360Y25123D01*
Y24798D01*
X183684D01*
Y25123D01*
X184333D01*
Y25447D01*
D02*
G37*
G36*
X182386Y25123D02*
X181737D01*
Y24798D01*
X182386D01*
Y25123D01*
D02*
G37*
G36*
X181737Y24798D02*
X181412D01*
Y24474D01*
X181737D01*
Y24798D01*
D02*
G37*
G36*
X174921Y25447D02*
X174272D01*
Y25123D01*
X173947D01*
Y24798D01*
X174597D01*
Y24474D01*
X174921D01*
Y23825D01*
X175246D01*
Y24474D01*
X175570D01*
Y24149D01*
X175895D01*
Y24474D01*
X175570D01*
Y25123D01*
D01*
D01*
X175246D01*
Y24798D01*
X174921D01*
Y25447D01*
D01*
D01*
D02*
G37*
G36*
X180114Y24474D02*
X179790D01*
Y24149D01*
X180114D01*
Y24474D01*
D02*
G37*
G36*
X181737Y24149D02*
X181412D01*
Y23825D01*
X181737D01*
Y24149D01*
D02*
G37*
G36*
X186605Y23825D02*
X186281D01*
Y23500D01*
X186605D01*
Y23825D01*
D02*
G37*
G36*
X176544D02*
X176219D01*
Y23500D01*
X176544D01*
Y23825D01*
D02*
G37*
G36*
X183360Y24149D02*
X183035D01*
Y23175D01*
X183684D01*
Y23500D01*
X183360D01*
Y24149D01*
D02*
G37*
%LPD*%
D11*
X237000Y118500D02*
G03*
X237000Y118500I-1250J0D01*
G01*
D12*
X305219Y152000D02*
X326281D01*
X305219Y169000D02*
X326281D01*
X200000Y113219D02*
Y134281D01*
X183000Y113219D02*
Y134281D01*
X29464Y291500D02*
X50526D01*
X29464Y274500D02*
X50526D01*
X29464Y226750D02*
X50526D01*
X29464Y209750D02*
X50526D01*
X29464Y159000D02*
X50526D01*
X29464Y142000D02*
X50526D01*
X205000Y134750D02*
X233000D01*
X205000Y124750D02*
X233000D01*
X205000D02*
Y134750D01*
X233000Y124750D02*
Y134750D01*
X295974Y276750D02*
X317036D01*
X295974Y293750D02*
X317036D01*
D13*
X282460Y226540D02*
Y241775D01*
X274842D01*
X272303Y239236D01*
Y234158D01*
X274842Y231618D01*
X282460D01*
X267225Y241775D02*
Y226540D01*
X259607D01*
X257068Y229079D01*
Y239236D01*
X259607Y241775D01*
X267225D01*
X236755D02*
Y226540D01*
X229137D01*
X226598Y229079D01*
Y231618D01*
X229137Y234158D01*
X236755D01*
X229137D01*
X226598Y236697D01*
Y239236D01*
X229137Y241775D01*
X236755D01*
X213902D02*
X218981D01*
X221520Y239236D01*
Y229079D01*
X218981Y226540D01*
X213902D01*
X211363Y229079D01*
Y239236D01*
X213902Y241775D01*
X206285Y226540D02*
Y236697D01*
X201206Y241775D01*
X196128Y236697D01*
Y226540D01*
Y234158D01*
X206285D01*
X191050Y226540D02*
Y241775D01*
X183432D01*
X180893Y239236D01*
Y234158D01*
X183432Y231618D01*
X191050D01*
X185971D02*
X180893Y226540D01*
X175814Y241775D02*
Y226540D01*
X168197D01*
X165658Y229079D01*
Y239236D01*
X168197Y241775D01*
X175814D01*
X145344Y226540D02*
Y241775D01*
X137727D01*
X135188Y239236D01*
Y234158D01*
X137727Y231618D01*
X145344D01*
X140266D02*
X135188Y226540D01*
X119952Y241775D02*
X130109D01*
Y226540D01*
X119952D01*
X130109Y234158D02*
X125031D01*
X114874Y241775D02*
Y231618D01*
X109796Y226540D01*
X104718Y231618D01*
Y241775D01*
X99639Y226540D02*
X94561D01*
X97100D01*
Y241775D01*
X99639Y239236D01*
X247803Y79736D02*
X250343Y82275D01*
X255421D01*
X257960Y79736D01*
Y77197D01*
X255421Y74658D01*
X250343D01*
X247803Y72118D01*
Y69579D01*
X250343Y67040D01*
X255421D01*
X257960Y69579D01*
X242725Y82275D02*
Y69579D01*
X240186Y67040D01*
X235107D01*
X232568Y69579D01*
Y82275D01*
X227490Y67040D02*
Y82275D01*
X217333Y67040D01*
Y82275D01*
X186863D02*
X197020D01*
Y74658D01*
X191941D01*
X197020D01*
Y67040D01*
X181785Y82275D02*
Y67040D01*
X171628D01*
X158932Y82275D02*
X164010D01*
X166550Y79736D01*
Y69579D01*
X164010Y67040D01*
X158932D01*
X156393Y69579D01*
Y79736D01*
X158932Y82275D01*
X151314D02*
Y67040D01*
X146236Y72118D01*
X141158Y67040D01*
Y82275D01*
X125923D02*
X136079D01*
Y67040D01*
X125923D01*
X136079Y74658D02*
X131001D01*
X120844Y67040D02*
Y82275D01*
X113227D01*
X110688Y79736D01*
Y74658D01*
X113227Y72118D01*
X120844D01*
X115766D02*
X110688Y67040D01*
D15*
X367318Y296414D02*
X376422D01*
X367828Y165336D02*
X376932D01*
D16*
X361915Y140251D02*
Y145249D01*
X359416D01*
X358583Y144416D01*
Y142750D01*
X359416Y141917D01*
X361915D01*
X360249D02*
X358583Y140251D01*
X353585Y145249D02*
X356917D01*
Y142750D01*
X355251Y143583D01*
X354418D01*
X353585Y142750D01*
Y141084D01*
X354418Y140251D01*
X356084D01*
X356917Y141084D01*
X380081Y331999D02*
Y327001D01*
X376748D01*
X371750Y331999D02*
X375082D01*
Y327001D01*
X371750D01*
X375082Y329500D02*
X373416D01*
X370084Y331999D02*
Y327001D01*
X367585D01*
X366752Y327834D01*
Y331166D01*
X367585Y331999D01*
X370084D01*
X365085Y327001D02*
X363419D01*
X364252D01*
Y331999D01*
X365085Y331166D01*
X334083Y162666D02*
X334916Y163499D01*
X336582D01*
X337415Y162666D01*
Y159334D01*
X336582Y158501D01*
X334916D01*
X334083Y159334D01*
X329085Y163499D02*
X332417D01*
Y161000D01*
X330751Y161833D01*
X329918D01*
X329085Y161000D01*
Y159334D01*
X329918Y158501D01*
X331584D01*
X332417Y159334D01*
X327833Y274916D02*
X328666Y275749D01*
X330332D01*
X331165Y274916D01*
Y271584D01*
X330332Y270751D01*
X328666D01*
X327833Y271584D01*
X322835Y270751D02*
X326167D01*
X322835Y274083D01*
Y274916D01*
X323668Y275749D01*
X325334D01*
X326167Y274916D01*
X223665Y167751D02*
Y172749D01*
X221166D01*
X220333Y171916D01*
Y170250D01*
X221166Y169417D01*
X223665D01*
X221999D02*
X220333Y167751D01*
X216168D02*
Y172749D01*
X218667Y170250D01*
X215335D01*
X192583Y142916D02*
X193416Y143749D01*
X195082D01*
X195915Y142916D01*
Y139584D01*
X195082Y138751D01*
X193416D01*
X192583Y139584D01*
X190917Y142916D02*
X190084Y143749D01*
X188418D01*
X187585Y142916D01*
Y142083D01*
X188418Y141250D01*
X189251D01*
X188418D01*
X187585Y140417D01*
Y139584D01*
X188418Y138751D01*
X190084D01*
X190917Y139584D01*
X21666Y285666D02*
X22499Y286499D01*
X24165D01*
X24998Y285666D01*
Y282334D01*
X24165Y281501D01*
X22499D01*
X21666Y282334D01*
X20000Y281501D02*
X18333D01*
X19167D01*
Y286499D01*
X20000Y285666D01*
X15834D02*
X15001Y286499D01*
X13335D01*
X12502Y285666D01*
Y282334D01*
X13335Y281501D01*
X15001D01*
X15834Y282334D01*
Y285666D01*
X21833Y220416D02*
X22666Y221249D01*
X24332D01*
X25165Y220416D01*
Y217084D01*
X24332Y216251D01*
X22666D01*
X21833Y217084D01*
X20167D02*
X19334Y216251D01*
X17668D01*
X16835Y217084D01*
Y220416D01*
X17668Y221249D01*
X19334D01*
X20167Y220416D01*
Y219583D01*
X19334Y218750D01*
X16835D01*
X20083Y153166D02*
X20916Y153999D01*
X22582D01*
X23415Y153166D01*
Y149834D01*
X22582Y149001D01*
X20916D01*
X20083Y149834D01*
X18417Y153166D02*
X17584Y153999D01*
X15918D01*
X15085Y153166D01*
Y152333D01*
X15918Y151500D01*
X15085Y150667D01*
Y149834D01*
X15918Y149001D01*
X17584D01*
X18417Y149834D01*
Y150667D01*
X17584Y151500D01*
X18417Y152333D01*
Y153166D01*
X17584Y151500D02*
X15918D01*
X336583Y177166D02*
X337416Y177999D01*
X339082D01*
X339915Y177166D01*
Y173834D01*
X339082Y173001D01*
X337416D01*
X336583Y173834D01*
X331585Y177999D02*
X333251Y177166D01*
X334917Y175500D01*
Y173834D01*
X334084Y173001D01*
X332418D01*
X331585Y173834D01*
Y174667D01*
X332418Y175500D01*
X334917D01*
X315000Y213081D02*
Y208083D01*
X312501D01*
X311668Y208916D01*
Y209749D01*
X312501Y210582D01*
X315000D01*
X312501D01*
X311668Y211415D01*
Y212248D01*
X312501Y213081D01*
X315000D01*
X310002Y208083D02*
Y211415D01*
X308335Y213081D01*
X306669Y211415D01*
Y208083D01*
Y210582D01*
X310002D01*
X305003Y213081D02*
X301671D01*
X303337D01*
Y208083D01*
X300005Y207250D02*
X296673D01*
X291674Y212248D02*
X292507Y213081D01*
X294174D01*
X295007Y212248D01*
Y211415D01*
X294174Y210582D01*
X292507D01*
X291674Y209749D01*
Y208916D01*
X292507Y208083D01*
X294174D01*
X295007Y208916D01*
X286676Y213081D02*
X290008D01*
Y208083D01*
X286676D01*
X290008Y210582D02*
X288342D01*
X285010Y208083D02*
Y213081D01*
X281678Y208083D01*
Y213081D01*
X276679Y212248D02*
X277512Y213081D01*
X279178D01*
X280012Y212248D01*
Y211415D01*
X279178Y210582D01*
X277512D01*
X276679Y209749D01*
Y208916D01*
X277512Y208083D01*
X279178D01*
X280012Y208916D01*
X271681Y213081D02*
X275013D01*
Y208083D01*
X271681D01*
X275013Y210582D02*
X273347D01*
X33918Y325915D02*
X34751Y326748D01*
X36417D01*
X37250Y325915D01*
Y322583D01*
X36417Y321750D01*
X34751D01*
X33918Y322583D01*
Y324249D01*
X35584D01*
X32252Y321750D02*
Y326748D01*
X28919Y321750D01*
Y326748D01*
X27253D02*
Y321750D01*
X24754D01*
X23921Y322583D01*
Y325915D01*
X24754Y326748D01*
X27253D01*
X29168Y170415D02*
X30001Y171248D01*
X31667D01*
X32500Y170415D01*
Y167083D01*
X31667Y166250D01*
X30001D01*
X29168Y167083D01*
Y168749D01*
X30834D01*
X27502Y166250D02*
Y171248D01*
X24169Y166250D01*
Y171248D01*
X22503D02*
Y166250D01*
X20004D01*
X19171Y167083D01*
Y170415D01*
X20004Y171248D01*
X22503D01*
X121500Y177831D02*
Y174499D01*
X119834Y172833D01*
X118168Y174499D01*
Y177831D01*
X116502D02*
Y172833D01*
X114003D01*
X113169Y173666D01*
Y174499D01*
X114003Y175332D01*
X116502D01*
X114003D01*
X113169Y176165D01*
Y176998D01*
X114003Y177831D01*
X116502D01*
X111503Y172833D02*
Y176165D01*
X109837Y177831D01*
X108171Y176165D01*
Y172833D01*
Y175332D01*
X111503D01*
X106505Y177831D02*
X103173D01*
X104839D01*
Y172833D01*
X101507Y172000D02*
X98174D01*
X94009Y177831D02*
X95675D01*
X96508Y176998D01*
Y173666D01*
X95675Y172833D01*
X94009D01*
X93176Y173666D01*
Y176998D01*
X94009Y177831D01*
X91510D02*
Y173666D01*
X90677Y172833D01*
X89011D01*
X88178Y173666D01*
Y177831D01*
X86511D02*
X83179D01*
X84845D01*
Y172833D01*
X26668Y104165D02*
X27501Y104998D01*
X29167D01*
X30000Y104165D01*
Y100833D01*
X29167Y100000D01*
X27501D01*
X26668Y100833D01*
Y102499D01*
X28334D01*
X25002Y100000D02*
Y104998D01*
X21669Y100000D01*
Y104998D01*
X20003D02*
Y100000D01*
X17504D01*
X16671Y100833D01*
Y104165D01*
X17504Y104998D01*
X20003D01*
X291918Y156331D02*
X295250D01*
Y153832D01*
X293584Y154665D01*
X292751D01*
X291918Y153832D01*
Y152166D01*
X292751Y151333D01*
X294417D01*
X295250Y152166D01*
X290252Y156331D02*
Y152999D01*
X288585Y151333D01*
X286919Y152999D01*
Y156331D01*
X285253Y150500D02*
X281921D01*
X276923Y156331D02*
X280255D01*
Y151333D01*
X276923D01*
X280255Y153832D02*
X278589D01*
X275257Y151333D02*
Y156331D01*
X271924Y151333D01*
Y156331D01*
X77000Y106581D02*
Y103249D01*
X75334Y101583D01*
X73668Y103249D01*
Y106581D01*
X72002D02*
Y101583D01*
X69503D01*
X68669Y102416D01*
Y103249D01*
X69503Y104082D01*
X72002D01*
X69503D01*
X68669Y104915D01*
Y105748D01*
X69503Y106581D01*
X72002D01*
X67003Y101583D02*
Y104915D01*
X65337Y106581D01*
X63671Y104915D01*
Y101583D01*
Y104082D01*
X67003D01*
X62005Y106581D02*
X58673D01*
X60339D01*
Y101583D01*
X57007Y100750D02*
X53674D01*
X49509Y106581D02*
X51175D01*
X52008Y105748D01*
Y102416D01*
X51175Y101583D01*
X49509D01*
X48676Y102416D01*
Y105748D01*
X49509Y106581D01*
X47010D02*
Y102416D01*
X46177Y101583D01*
X44511D01*
X43678Y102416D01*
Y106581D01*
X42011D02*
X38679D01*
X40345D01*
Y101583D01*
X358334Y179250D02*
X357501D01*
X356668Y180083D01*
Y184248D01*
X359167D01*
X360000Y183415D01*
Y181749D01*
X359167Y180916D01*
X356668D01*
X355002D02*
Y184248D01*
X352503D01*
X351669Y183415D01*
Y180916D01*
X346671Y185914D02*
Y180916D01*
X349170D01*
X350003Y181749D01*
Y183415D01*
X349170Y184248D01*
X346671D01*
X162418Y177665D02*
X163251Y178498D01*
X164917D01*
X165750Y177665D01*
Y174333D01*
X164917Y173500D01*
X163251D01*
X162418Y174333D01*
Y175999D01*
X164084D01*
X160752Y173500D02*
Y178498D01*
X157419Y173500D01*
Y178498D01*
X155753D02*
Y173500D01*
X153254D01*
X152421Y174333D01*
Y177665D01*
X153254Y178498D01*
X155753D01*
X302500Y332498D02*
Y329166D01*
X300834Y327500D01*
X299168Y329166D01*
Y332498D01*
X297502D02*
Y327500D01*
X295002D01*
X294169Y328333D01*
Y329166D01*
X295002Y329999D01*
X297502D01*
X295002D01*
X294169Y330832D01*
Y331665D01*
X295002Y332498D01*
X297502D01*
X292503Y327500D02*
Y330832D01*
X290837Y332498D01*
X289171Y330832D01*
Y327500D01*
Y329999D01*
X292503D01*
X287505Y332498D02*
X284173D01*
X285839D01*
Y327500D01*
X105750Y328331D02*
Y324999D01*
X104084Y323333D01*
X102418Y324999D01*
Y328331D01*
X100752D02*
Y323333D01*
X98252D01*
X97419Y324166D01*
Y324999D01*
X98252Y325832D01*
X100752D01*
X98252D01*
X97419Y326665D01*
Y327498D01*
X98252Y328331D01*
X100752D01*
X95753Y323333D02*
Y326665D01*
X94087Y328331D01*
X92421Y326665D01*
Y323333D01*
Y325832D01*
X95753D01*
X90755Y328331D02*
X87423D01*
X89089D01*
Y323333D01*
X85757Y322500D02*
X82424D01*
X78259Y328331D02*
X79925D01*
X80758Y327498D01*
Y324166D01*
X79925Y323333D01*
X78259D01*
X77426Y324166D01*
Y327498D01*
X78259Y328331D01*
X75760D02*
Y324166D01*
X74927Y323333D01*
X73261D01*
X72428Y324166D01*
Y328331D01*
X70761D02*
X67429D01*
X69095D01*
Y323333D01*
X76750Y236581D02*
Y233249D01*
X75084Y231583D01*
X73418Y233249D01*
Y236581D01*
X71752D02*
Y231583D01*
X69253D01*
X68419Y232416D01*
Y233249D01*
X69253Y234082D01*
X71752D01*
X69253D01*
X68419Y234915D01*
Y235748D01*
X69253Y236581D01*
X71752D01*
X66753Y231583D02*
Y234915D01*
X65087Y236581D01*
X63421Y234915D01*
Y231583D01*
Y234082D01*
X66753D01*
X61755Y236581D02*
X58423D01*
X60089D01*
Y231583D01*
X56757Y230750D02*
X53424D01*
X49259Y236581D02*
X50925D01*
X51758Y235748D01*
Y232416D01*
X50925Y231583D01*
X49259D01*
X48426Y232416D01*
Y235748D01*
X49259Y236581D01*
X46760D02*
Y232416D01*
X45927Y231583D01*
X44261D01*
X43428Y232416D01*
Y236581D01*
X41761D02*
X38429D01*
X40095D01*
Y231583D01*
X303168Y93998D02*
X306500D01*
Y91499D01*
X304834Y92332D01*
X304001D01*
X303168Y91499D01*
Y89833D01*
X304001Y89000D01*
X305667D01*
X306500Y89833D01*
X301502Y93998D02*
Y90666D01*
X299835Y89000D01*
X298169Y90666D01*
Y93998D01*
X76750Y170581D02*
Y167249D01*
X75084Y165583D01*
X73418Y167249D01*
Y170581D01*
X71752D02*
Y165583D01*
X69253D01*
X68419Y166416D01*
Y167249D01*
X69253Y168082D01*
X71752D01*
X69253D01*
X68419Y168915D01*
Y169748D01*
X69253Y170581D01*
X71752D01*
X66753Y165583D02*
Y168915D01*
X65087Y170581D01*
X63421Y168915D01*
Y165583D01*
Y168082D01*
X66753D01*
X61755Y170581D02*
X58423D01*
X60089D01*
Y165583D01*
X56757Y164750D02*
X53424D01*
X49259Y170581D02*
X50925D01*
X51758Y169748D01*
Y166416D01*
X50925Y165583D01*
X49259D01*
X48426Y166416D01*
Y169748D01*
X49259Y170581D01*
X46760D02*
Y166416D01*
X45927Y165583D01*
X44261D01*
X43428Y166416D01*
Y170581D01*
X41761D02*
X38429D01*
X40095D01*
Y165583D01*
X357500Y196916D02*
Y200248D01*
X355001D01*
X354168Y199415D01*
Y196916D01*
X352502D02*
Y200248D01*
X351669D01*
X350835Y199415D01*
Y196916D01*
Y199415D01*
X350002Y200248D01*
X349169Y199415D01*
Y196916D01*
X346670D02*
X345004D01*
X344171Y197749D01*
Y199415D01*
X345004Y200248D01*
X346670D01*
X347503Y199415D01*
Y197749D01*
X346670Y196916D01*
X342505D02*
X340006D01*
X339173Y197749D01*
X340006Y198582D01*
X341672D01*
X342505Y199415D01*
X341672Y200248D01*
X339173D01*
X330842Y195250D02*
X330009D01*
X329176Y196083D01*
Y200248D01*
X331675D01*
X332508Y199415D01*
Y197749D01*
X331675Y196916D01*
X329176D01*
X326677Y200248D02*
X325011D01*
X324178Y199415D01*
Y196916D01*
X326677D01*
X327510Y197749D01*
X326677Y198582D01*
X324178D01*
X321678Y201081D02*
Y200248D01*
X322511D01*
X320845D01*
X321678D01*
Y197749D01*
X320845Y196916D01*
X315847D02*
X317513D01*
X318346Y197749D01*
Y199415D01*
X317513Y200248D01*
X315847D01*
X315014Y199415D01*
Y198582D01*
X318346D01*
X310918Y23248D02*
X314250D01*
Y20749D01*
X312584Y21582D01*
X311751D01*
X310918Y20749D01*
Y19083D01*
X311751Y18250D01*
X313417D01*
X314250Y19083D01*
X309252Y23248D02*
Y19916D01*
X307586Y18250D01*
X305919Y19916D01*
Y23248D01*
X41418Y46415D02*
X42251Y47248D01*
X43917D01*
X44750Y46415D01*
Y43083D01*
X43917Y42250D01*
X42251D01*
X41418Y43083D01*
Y44749D01*
X43084D01*
X39752Y42250D02*
Y47248D01*
X36419Y42250D01*
Y47248D01*
X34753D02*
Y42250D01*
X32254D01*
X31421Y43083D01*
Y46415D01*
X32254Y47248D01*
X34753D01*
X364168Y91665D02*
X365001Y92498D01*
X366667D01*
X367500Y91665D01*
Y88333D01*
X366667Y87500D01*
X365001D01*
X364168Y88333D01*
Y89999D01*
X365834D01*
X362502Y87500D02*
Y92498D01*
X359169Y87500D01*
Y92498D01*
X357503D02*
Y87500D01*
X355004D01*
X354171Y88333D01*
Y91665D01*
X355004Y92498D01*
X357503D01*
X26668Y235915D02*
X27501Y236748D01*
X29167D01*
X30000Y235915D01*
Y232583D01*
X29167Y231750D01*
X27501D01*
X26668Y232583D01*
Y234249D01*
X28334D01*
X25002Y231750D02*
Y236748D01*
X21669Y231750D01*
Y236748D01*
X20003D02*
Y231750D01*
X17504D01*
X16671Y232583D01*
Y235915D01*
X17504Y236748D01*
X20003D01*
X108500Y48331D02*
Y44999D01*
X106834Y43333D01*
X105168Y44999D01*
Y48331D01*
X103502D02*
Y43333D01*
X101003D01*
X100169Y44166D01*
Y44999D01*
X101003Y45832D01*
X103502D01*
X101003D01*
X100169Y46665D01*
Y47498D01*
X101003Y48331D01*
X103502D01*
X98503Y43333D02*
Y46665D01*
X96837Y48331D01*
X95171Y46665D01*
Y43333D01*
Y45832D01*
X98503D01*
X93505Y48331D02*
X90173D01*
X91839D01*
Y43333D01*
X88507Y42500D02*
X85174D01*
X81009Y48331D02*
X82675D01*
X83508Y47498D01*
Y44166D01*
X82675Y43333D01*
X81009D01*
X80176Y44166D01*
Y47498D01*
X81009Y48331D01*
X78510D02*
Y44166D01*
X77677Y43333D01*
X76011D01*
X75178Y44166D01*
Y48331D01*
X73512D02*
X70179D01*
X71845D01*
Y43333D01*
X338918Y23415D02*
X339751Y24248D01*
X341417D01*
X342250Y23415D01*
Y20083D01*
X341417Y19250D01*
X339751D01*
X338918Y20083D01*
Y21749D01*
X340584D01*
X337252Y19250D02*
Y24248D01*
X333919Y19250D01*
Y24248D01*
X332253D02*
Y19250D01*
X329754D01*
X328921Y20083D01*
Y23415D01*
X329754Y24248D01*
X332253D01*
X357250Y224082D02*
X355584Y220750D01*
X353918Y224082D01*
X352252Y225748D02*
Y220750D01*
X349753D01*
X348919Y221583D01*
Y222416D01*
Y223249D01*
X349753Y224082D01*
X352252D01*
X346420D02*
X344754D01*
X343921Y223249D01*
Y220750D01*
X346420D01*
X347253Y221583D01*
X346420Y222416D01*
X343921D01*
X341422Y224915D02*
Y224082D01*
X342255D01*
X340589D01*
X341422D01*
Y221583D01*
X340589Y220750D01*
X321918Y331915D02*
X322751Y332748D01*
X324417D01*
X325250Y331915D01*
Y328583D01*
X324417Y327750D01*
X322751D01*
X321918Y328583D01*
Y330249D01*
X323584D01*
X320252Y327750D02*
Y332748D01*
X316919Y327750D01*
Y332748D01*
X315253D02*
Y327750D01*
X312754D01*
X311921Y328583D01*
Y331915D01*
X312754Y332748D01*
X315253D01*
X248415Y132499D02*
Y128334D01*
X247582Y127501D01*
X245916D01*
X245083Y128334D01*
Y132499D01*
X240085Y127501D02*
X243417D01*
X240085Y130833D01*
Y131666D01*
X240918Y132499D01*
X242584D01*
X243417Y131666D01*
X376914Y170499D02*
Y165501D01*
X373581D01*
X368583Y170499D02*
X371915D01*
Y165501D01*
X368583D01*
X371915Y168000D02*
X370249D01*
X366917Y170499D02*
Y165501D01*
X364418D01*
X363585Y166334D01*
Y169666D01*
X364418Y170499D01*
X366917D01*
X361919Y169666D02*
X361086Y170499D01*
X359419D01*
X358586Y169666D01*
Y168833D01*
X359419Y168000D01*
X360252D01*
X359419D01*
X358586Y167167D01*
Y166334D01*
X359419Y165501D01*
X361086D01*
X361919Y166334D01*
X343665Y327001D02*
Y331999D01*
X341166D01*
X340333Y331166D01*
Y329500D01*
X341166Y328667D01*
X343665D01*
X341999D02*
X340333Y327001D01*
X338667Y331166D02*
X337834Y331999D01*
X336168D01*
X335335Y331166D01*
Y330333D01*
X336168Y329500D01*
X335335Y328667D01*
Y327834D01*
X336168Y327001D01*
X337834D01*
X338667Y327834D01*
Y328667D01*
X337834Y329500D01*
X338667Y330333D01*
Y331166D01*
X337834Y329500D02*
X336168D01*
X241915Y179501D02*
Y184499D01*
X239416D01*
X238583Y183666D01*
Y182000D01*
X239416Y181167D01*
X241915D01*
X240249D02*
X238583Y179501D01*
X233585Y184499D02*
X235251Y183666D01*
X236917Y182000D01*
Y180334D01*
X236084Y179501D01*
X234418D01*
X233585Y180334D01*
Y181167D01*
X234418Y182000D01*
X236917D01*
X330916Y286416D02*
X331749Y287249D01*
X333415D01*
X334248Y286416D01*
Y283084D01*
X333415Y282251D01*
X331749D01*
X330916Y283084D01*
X329250Y282251D02*
X327584D01*
X328416D01*
Y287249D01*
X329250Y286416D01*
X325084Y287249D02*
X321752D01*
Y286416D01*
X325084Y283084D01*
Y282251D01*
X330916Y302416D02*
X331749Y303249D01*
X333415D01*
X334248Y302416D01*
Y299084D01*
X333415Y298251D01*
X331749D01*
X330916Y299084D01*
X329250Y298251D02*
X327584D01*
X328416D01*
Y303249D01*
X329250Y302416D01*
X321752Y303249D02*
X323418Y302416D01*
X325084Y300750D01*
Y299084D01*
X324251Y298251D01*
X322585D01*
X321752Y299084D01*
Y299917D01*
X322585Y300750D01*
X325084D01*
X195415Y173251D02*
Y178249D01*
X192916D01*
X192083Y177416D01*
Y175750D01*
X192916Y174917D01*
X195415D01*
X193749D02*
X192083Y173251D01*
X190417Y178249D02*
X187085D01*
Y177416D01*
X190417Y174084D01*
Y173251D01*
X176166Y143166D02*
X176999Y143999D01*
X178665D01*
X179498Y143166D01*
Y139834D01*
X178665Y139001D01*
X176999D01*
X176166Y139834D01*
X174500Y139001D02*
X172833D01*
X173666D01*
Y143999D01*
X174500Y143166D01*
X167835Y139001D02*
Y143999D01*
X170334Y141500D01*
X167002D01*
X159416Y143416D02*
X160249Y144249D01*
X161915D01*
X162748Y143416D01*
Y140084D01*
X161915Y139251D01*
X160249D01*
X159416Y140084D01*
X157750Y139251D02*
X156083D01*
X156917D01*
Y144249D01*
X157750Y143416D01*
X150252Y144249D02*
X153584D01*
Y141750D01*
X151918Y142583D01*
X151085D01*
X150252Y141750D01*
Y140084D01*
X151085Y139251D01*
X152751D01*
X153584Y140084D01*
X374335Y222668D02*
X373502Y223501D01*
Y225167D01*
X374335Y226000D01*
X375168D01*
X376001Y225167D01*
Y223501D01*
X376834Y222668D01*
X377667D01*
X378500Y223501D01*
Y225167D01*
X377667Y226000D01*
X373502Y221002D02*
X378500D01*
X376834Y219335D01*
X378500Y217669D01*
X373502D01*
Y216003D02*
Y214337D01*
Y215170D01*
X378500D01*
Y216003D01*
Y214337D01*
X373502Y211838D02*
Y208506D01*
Y210172D01*
X378500D01*
X374335Y203507D02*
X373502Y204340D01*
Y206007D01*
X374335Y206840D01*
X377667D01*
X378500Y206007D01*
Y204340D01*
X377667Y203507D01*
X373502Y201841D02*
X378500D01*
X376001D01*
Y198509D01*
X373502D01*
X378500D01*
M02*
